<svg class="main-svg" xmlns="http://www.w3.org/2000/svg" xmlns:xlink="http://www.w3.org/1999/xlink" width="600" height="400" viewBox="0 0 600 400"><rect x="0" y="0" width="600" height="400" style="fill: rgb(255, 255, 255); fill-opacity: 1;"/><defs id="defs-555d49"><g class="clips"><clipPath id="clip555d49xyplot" class="plotclip"><rect width="265.45931758530185" height="329.1633858267716"/></clipPath><clipPath id="clip555d49x2y2plot" class="plotclip"><rect width="265.45931758530185" height="329.1633858267716"/></clipPath><clipPath class="axesclip" id="clip555d49x"><rect x="30.603674540682416" y="0" width="265.45931758530185" height="400"/></clipPath><clipPath class="axesclip" id="clip555d49y"><rect x="0" y="23.543307086614167" width="600" height="329.1633858267716"/></clipPath><clipPath class="axesclip" id="clip555d49xy"><rect x="30.603674540682416" y="23.543307086614167" width="265.45931758530185" height="329.1633858267716"/></clipPath><clipPath class="axesclip" id="clip555d49y2"><rect x="0" y="23.543307086614167" width="600" height="329.1633858267716"/></clipPath><clipPath class="axesclip" id="clip555d49xy2"><rect x="30.603674540682416" y="23.543307086614167" width="265.45931758530185" height="329.1633858267716"/></clipPath><clipPath class="axesclip" id="clip555d49x2"><rect x="330.6036745406825" y="0" width="265.45931758530185" height="400"/></clipPath><clipPath class="axesclip" id="clip555d49x2y"><rect x="330.6036745406825" y="23.543307086614167" width="265.45931758530185" height="329.1633858267716"/></clipPath><clipPath class="axesclip" id="clip555d49x2y2"><rect x="330.6036745406825" y="23.543307086614167" width="265.45931758530185" height="329.1633858267716"/></clipPath></g><g class="gradients"/></defs><g class="bglayer"><rect class="bg" x="30.603674540682416" y="23.543307086614167" width="265.45931758530185" height="329.1633858267716" style="fill: rgb(255, 255, 255); fill-opacity: 1; stroke-width: 0;"/><rect class="bg" x="330.6036745406825" y="23.543307086614167" width="265.45931758530185" height="329.1633858267716" style="fill: rgb(255, 255, 255); fill-opacity: 1; stroke-width: 0;"/></g><g class="layer-below"><g class="imagelayer"/><g class="shapelayer"/></g><g class="cartesianlayer"><g class="subplot xy"><g class="layer-subplot"><g class="shapelayer"/><g class="imagelayer"/></g><g class="gridlayer"><g class="x"><path class="xgrid crisp" d="M0,23.543307086614167v329.1633858267716" transform="translate(45.203674540682414,0)" style="stroke: rgb(0, 0, 0); stroke-opacity: 0.1; stroke-width: 0.5px;"/><path class="xgrid crisp" d="M0,23.543307086614167v329.1633858267716" transform="translate(96.56367454068241,0)" style="stroke: rgb(0, 0, 0); stroke-opacity: 0.1; stroke-width: 0.5px;"/><path class="xgrid crisp" d="M0,23.543307086614167v329.1633858267716" transform="translate(147.9236745406824,0)" style="stroke: rgb(0, 0, 0); stroke-opacity: 0.1; stroke-width: 0.5px;"/><path class="xgrid crisp" d="M0,23.543307086614167v329.1633858267716" transform="translate(199.28367454068243,0)" style="stroke: rgb(0, 0, 0); stroke-opacity: 0.1; stroke-width: 0.5px;"/><path class="xgrid crisp" d="M0,23.543307086614167v329.1633858267716" transform="translate(250.6436745406824,0)" style="stroke: rgb(0, 0, 0); stroke-opacity: 0.1; stroke-width: 0.5px;"/></g><g class="y"><path class="ygrid crisp" d="M30.603674540682416,0h265.45931758530185" transform="translate(0,343.3933070866142)" style="stroke: rgb(0, 0, 0); stroke-opacity: 0.1; stroke-width: 0.5px;"/><path class="ygrid crisp" d="M30.603674540682416,0h265.45931758530185" transform="translate(0,277.0333070866142)" style="stroke: rgb(0, 0, 0); stroke-opacity: 0.1; stroke-width: 0.5px;"/><path class="ygrid crisp" d="M30.603674540682416,0h265.45931758530185" transform="translate(0,210.68330708661415)" style="stroke: rgb(0, 0, 0); stroke-opacity: 0.1; stroke-width: 0.5px;"/><path class="ygrid crisp" d="M30.603674540682416,0h265.45931758530185" transform="translate(0,144.33330708661418)" style="stroke: rgb(0, 0, 0); stroke-opacity: 0.1; stroke-width: 0.5px;"/><path class="ygrid crisp" d="M30.603674540682416,0h265.45931758530185" transform="translate(0,77.98330708661416)" style="stroke: rgb(0, 0, 0); stroke-opacity: 0.1; stroke-width: 0.5px;"/></g></g><g class="zerolinelayer"/><path class="xlines-below"/><path class="ylines-below"/><g class="overlines-below"/><g class="xaxislayer-below"/><g class="yaxislayer-below"/><g class="overaxes-below"/><g class="plot" transform="translate(30.603674540682416, 23.543307086614167)" clip-path="url(#clip555d49xyplot)"><g class="scatterlayer mlayer"><g class="trace scatter trace004e74" style="stroke-miterlimit: 2;"><path class="js-fill js-tozero" d="M14.6,319.85L14.6,319.85L14.6,317.19L14.6,319.85L24.87,319.85L24.87,317.19L14.6,317.19" style="fill: rgb(0, 0, 255); fill-opacity: 1; stroke-width: 0;"/><path class="js-line" d="M14.6,317.19L14.6,319.85L24.87,319.85L24.87,317.19L14.6,317.19" style="vector-effect: non-scaling-stroke; fill: none; stroke: rgb(0, 0, 0); stroke-opacity: 1; stroke-width: 1px; opacity: 1;"/><g class="points"/></g><g class="trace scatter tracec751b9" style="stroke-miterlimit: 2;"><path class="js-fill js-tozero" d="M24.87,319.85L24.87,319.85L24.87,319.85L35.14,319.85L24.87,319.85" style="fill: rgb(0, 0, 255); fill-opacity: 1; stroke-width: 0;"/><path class="js-line" d="M24.87,319.85L35.14,319.85L24.87,319.85" style="vector-effect: non-scaling-stroke; fill: none; stroke: rgb(0, 0, 0); stroke-opacity: 1; stroke-width: 1px; opacity: 1;"/><g class="points"/></g><g class="trace scatter tracefc0a3f" style="stroke-miterlimit: 2;"><path class="js-fill js-tozero" d="M35.14,319.85L35.14,319.85L35.14,317.19L35.14,319.85L45.42,319.85L45.42,317.19L35.14,317.19" style="fill: rgb(0, 0, 255); fill-opacity: 1; stroke-width: 0;"/><path class="js-line" d="M35.14,317.19L35.14,319.85L45.42,319.85L45.42,317.19L35.14,317.19" style="vector-effect: non-scaling-stroke; fill: none; stroke: rgb(0, 0, 0); stroke-opacity: 1; stroke-width: 1px; opacity: 1;"/><g class="points"/></g><g class="trace scatter trace0630ab" style="stroke-miterlimit: 2;"><path class="js-fill js-tozero" d="M45.42,319.85L45.42,319.85L45.42,298.61L45.42,319.85L55.69,319.85L55.69,298.61L45.42,298.61" style="fill: rgb(0, 0, 255); fill-opacity: 1; stroke-width: 0;"/><path class="js-line" d="M45.42,298.61L45.42,319.85L55.69,319.85L55.69,298.61L45.42,298.61" style="vector-effect: non-scaling-stroke; fill: none; stroke: rgb(0, 0, 0); stroke-opacity: 1; stroke-width: 1px; opacity: 1;"/><g class="points"/></g><g class="trace scatter tracece9aa4" style="stroke-miterlimit: 2;"><path class="js-fill js-tozero" d="M55.69,319.85L55.69,319.85L55.69,290.65L55.69,319.85L65.96,319.85L65.96,290.65L55.69,290.65" style="fill: rgb(0, 0, 255); fill-opacity: 1; stroke-width: 0;"/><path class="js-line" d="M55.69,290.65L55.69,319.85L65.96,319.85L65.96,290.65L55.69,290.65" style="vector-effect: non-scaling-stroke; fill: none; stroke: rgb(0, 0, 0); stroke-opacity: 1; stroke-width: 1px; opacity: 1;"/><g class="points"/></g><g class="trace scatter trace145b5e" style="stroke-miterlimit: 2;"><path class="js-fill js-tozero" d="M65.96,319.85L65.96,319.85L65.96,213.68L65.96,319.85L76.23,319.85L76.23,213.68L65.96,213.68" style="fill: rgb(0, 0, 255); fill-opacity: 1; stroke-width: 0;"/><path class="js-line" d="M65.96,213.68L65.96,319.85L76.23,319.85L76.23,213.68L65.96,213.68" style="vector-effect: non-scaling-stroke; fill: none; stroke: rgb(0, 0, 0); stroke-opacity: 1; stroke-width: 1px; opacity: 1;"/><g class="points"/></g><g class="trace scatter trace54bb6f" style="stroke-miterlimit: 2;"><path class="js-fill js-tozero" d="M76.23,319.85L76.23,319.85L76.23,195.1L76.23,319.85L86.51,319.85L86.51,195.1L76.23,195.1" style="fill: rgb(0, 0, 255); fill-opacity: 1; stroke-width: 0;"/><path class="js-line" d="M76.23,195.1L76.23,319.85L86.51,319.85L86.51,195.1L76.23,195.1" style="vector-effect: non-scaling-stroke; fill: none; stroke: rgb(0, 0, 0); stroke-opacity: 1; stroke-width: 1px; opacity: 1;"/><g class="points"/></g><g class="trace scatter traceb6e03c" style="stroke-miterlimit: 2;"><path class="js-fill js-tozero" d="M86.51,319.85L86.51,319.85L86.51,152.64L86.51,319.85L96.78,319.85L96.78,152.64L86.51,152.64" style="fill: rgb(0, 0, 255); fill-opacity: 1; stroke-width: 0;"/><path class="js-line" d="M86.51,152.64L86.51,319.85L96.78,319.85L96.78,152.64L86.51,152.64" style="vector-effect: non-scaling-stroke; fill: none; stroke: rgb(0, 0, 0); stroke-opacity: 1; stroke-width: 1px; opacity: 1;"/><g class="points"/></g><g class="trace scatter trace0a57dd" style="stroke-miterlimit: 2;"><path class="js-fill js-tozero" d="M96.78,319.85L96.78,319.85L96.78,51.78L96.78,319.85L107.05,319.85L107.05,51.78L96.78,51.78" style="fill: rgb(0, 0, 255); fill-opacity: 1; stroke-width: 0;"/><path class="js-line" d="M96.78,51.78L96.78,319.85L107.05,319.85L107.05,51.78L96.78,51.78" style="vector-effect: non-scaling-stroke; fill: none; stroke: rgb(0, 0, 0); stroke-opacity: 1; stroke-width: 1px; opacity: 1;"/><g class="points"/></g><g class="trace scatter trace7fb383" style="stroke-miterlimit: 2;"><path class="js-fill js-tozero" d="M107.05,319.85L107.05,319.85L107.05,46.47L107.05,319.85L117.32,319.85L117.32,46.47L107.05,46.47" style="fill: rgb(0, 0, 255); fill-opacity: 1; stroke-width: 0;"/><path class="js-line" d="M107.05,46.47L107.05,319.85L117.32,319.85L117.32,46.47L107.05,46.47" style="vector-effect: non-scaling-stroke; fill: none; stroke: rgb(0, 0, 0); stroke-opacity: 1; stroke-width: 1px; opacity: 1;"/><g class="points"/></g><g class="trace scatter tracec5f2fd" style="stroke-miterlimit: 2;"><path class="js-fill js-tozero" d="M117.32,319.85L117.32,319.85L117.32,9.32L117.32,319.85L127.59,319.85L127.59,9.32L117.32,9.32" style="fill: rgb(0, 0, 255); fill-opacity: 1; stroke-width: 0;"/><path class="js-line" d="M117.32,9.32L117.32,319.85L127.59,319.85L127.59,9.32L117.32,9.32" style="vector-effect: non-scaling-stroke; fill: none; stroke: rgb(0, 0, 0); stroke-opacity: 1; stroke-width: 1px; opacity: 1;"/><g class="points"/></g><g class="trace scatter trace404894" style="stroke-miterlimit: 2;"><path class="js-fill js-tozero" d="M127.59,319.85L127.59,319.85L127.59,27.89L127.59,319.85L137.87,319.85L137.87,27.89L127.59,27.89" style="fill: rgb(0, 0, 255); fill-opacity: 1; stroke-width: 0;"/><path class="js-line" d="M127.59,27.89L127.59,319.85L137.87,319.85L137.87,27.89L127.59,27.89" style="vector-effect: non-scaling-stroke; fill: none; stroke: rgb(0, 0, 0); stroke-opacity: 1; stroke-width: 1px; opacity: 1;"/><g class="points"/></g><g class="trace scatter tracec3f878" style="stroke-miterlimit: 2;"><path class="js-fill js-tozero" d="M137.87,319.85L137.87,319.85L137.87,88.94L137.87,319.85L148.14,319.85L148.14,88.94L137.87,88.94" style="fill: rgb(0, 0, 255); fill-opacity: 1; stroke-width: 0;"/><path class="js-line" d="M137.87,88.94L137.87,319.85L148.14,319.85L148.14,88.94L137.87,88.94" style="vector-effect: non-scaling-stroke; fill: none; stroke: rgb(0, 0, 0); stroke-opacity: 1; stroke-width: 1px; opacity: 1;"/><g class="points"/></g><g class="trace scatter trace62171d" style="stroke-miterlimit: 2;"><path class="js-fill js-tozero" d="M148.14,319.85L148.14,319.85L148.14,142.02L148.14,319.85L158.41,319.85L158.41,142.02L148.14,142.02" style="fill: rgb(0, 0, 255); fill-opacity: 1; stroke-width: 0;"/><path class="js-line" d="M148.14,142.02L148.14,319.85L158.41,319.85L158.41,142.02L148.14,142.02" style="vector-effect: non-scaling-stroke; fill: none; stroke: rgb(0, 0, 0); stroke-opacity: 1; stroke-width: 1px; opacity: 1;"/><g class="points"/></g><g class="trace scatter trace454169" style="stroke-miterlimit: 2;"><path class="js-fill js-tozero" d="M158.41,319.85L158.41,319.85L158.41,226.95L158.41,319.85L168.68,319.85L168.68,226.95L158.41,226.95" style="fill: rgb(0, 0, 255); fill-opacity: 1; stroke-width: 0;"/><path class="js-line" d="M158.41,226.95L158.41,319.85L168.68,319.85L168.68,226.95L158.41,226.95" style="vector-effect: non-scaling-stroke; fill: none; stroke: rgb(0, 0, 0); stroke-opacity: 1; stroke-width: 1px; opacity: 1;"/><g class="points"/></g><g class="trace scatter traceaf822a" style="stroke-miterlimit: 2;"><path class="js-fill js-tozero" d="M168.68,319.85L168.68,319.85L168.68,274.73L168.68,319.85L178.95,319.85L178.95,274.73L168.68,274.73" style="fill: rgb(0, 0, 255); fill-opacity: 1; stroke-width: 0;"/><path class="js-line" d="M168.68,274.73L168.68,319.85L178.95,319.85L178.95,274.73L168.68,274.73" style="vector-effect: non-scaling-stroke; fill: none; stroke: rgb(0, 0, 0); stroke-opacity: 1; stroke-width: 1px; opacity: 1;"/><g class="points"/></g><g class="trace scatter trace4c8e5f" style="stroke-miterlimit: 2;"><path class="js-fill js-tozero" d="M178.95,319.85L178.95,319.85L178.95,288L178.95,319.85L189.23,319.85L189.23,288L178.95,288" style="fill: rgb(0, 0, 255); fill-opacity: 1; stroke-width: 0;"/><path class="js-line" d="M178.95,288L178.95,319.85L189.23,319.85L189.23,288L178.95,288" style="vector-effect: non-scaling-stroke; fill: none; stroke: rgb(0, 0, 0); stroke-opacity: 1; stroke-width: 1px; opacity: 1;"/><g class="points"/></g><g class="trace scatter traced25f27" style="stroke-miterlimit: 2;"><path class="js-fill js-tozero" d="M189.23,319.85L189.23,319.85L189.23,311.89L189.23,319.85L199.5,319.85L199.5,311.89L189.23,311.89" style="fill: rgb(0, 0, 255); fill-opacity: 1; stroke-width: 0;"/><path class="js-line" d="M189.23,311.89L189.23,319.85L199.5,319.85L199.5,311.89L189.23,311.89" style="vector-effect: non-scaling-stroke; fill: none; stroke: rgb(0, 0, 0); stroke-opacity: 1; stroke-width: 1px; opacity: 1;"/><g class="points"/></g><g class="trace scatter trace8ae45a" style="stroke-miterlimit: 2;"><path class="js-fill js-tozero" d="M199.5,319.85L199.5,319.85L199.5,314.54L199.5,319.85L209.77,319.85L209.77,314.54L199.5,314.54" style="fill: rgb(0, 0, 255); fill-opacity: 1; stroke-width: 0;"/><path class="js-line" d="M199.5,314.54L199.5,319.85L209.77,319.85L209.77,314.54L199.5,314.54" style="vector-effect: non-scaling-stroke; fill: none; stroke: rgb(0, 0, 0); stroke-opacity: 1; stroke-width: 1px; opacity: 1;"/><g class="points"/></g><g class="trace scatter traceb75202" style="stroke-miterlimit: 2;"><path class="js-fill js-tozero" d="M209.77,319.85L209.77,319.85L209.77,317.19L209.77,319.85L220.04,319.85L220.04,317.19L209.77,317.19" style="fill: rgb(0, 0, 255); fill-opacity: 1; stroke-width: 0;"/><path class="js-line" d="M209.77,317.19L209.77,319.85L220.04,319.85L220.04,317.19L209.77,317.19" style="vector-effect: non-scaling-stroke; fill: none; stroke: rgb(0, 0, 0); stroke-opacity: 1; stroke-width: 1px; opacity: 1;"/><g class="points"/></g><g class="trace scatter trace35cc05" style="stroke-miterlimit: 2;"><path class="js-fill js-tozero" d="M220.04,319.85L220.04,319.85L220.04,319.85L230.31,319.85L220.04,319.85" style="fill: rgb(0, 0, 255); fill-opacity: 1; stroke-width: 0;"/><path class="js-line" d="M220.04,319.85L230.31,319.85L220.04,319.85" style="vector-effect: non-scaling-stroke; fill: none; stroke: rgb(0, 0, 0); stroke-opacity: 1; stroke-width: 1px; opacity: 1;"/><g class="points"/></g><g class="trace scatter trace31c51b" style="stroke-miterlimit: 2;"><path class="js-fill js-tozero" d="M230.31,319.85L230.31,319.85L230.31,317.19L230.31,319.85L240.59,319.85L240.59,317.19L230.31,317.19" style="fill: rgb(0, 0, 255); fill-opacity: 1; stroke-width: 0;"/><path class="js-line" d="M230.31,317.19L230.31,319.85L240.59,319.85L240.59,317.19L230.31,317.19" style="vector-effect: non-scaling-stroke; fill: none; stroke: rgb(0, 0, 0); stroke-opacity: 1; stroke-width: 1px; opacity: 1;"/><g class="points"/></g><g class="trace scatter trace116aae" style="stroke-miterlimit: 2;"><path class="js-fill js-tozero" d="M240.59,319.85L240.59,319.85L240.59,314.54L240.59,319.85L250.86,319.85L250.86,314.54L240.59,314.54" style="fill: rgb(0, 0, 255); fill-opacity: 1; stroke-width: 0;"/><path class="js-line" d="M240.59,314.54L240.59,319.85L250.86,319.85L250.86,314.54L240.59,314.54" style="vector-effect: non-scaling-stroke; fill: none; stroke: rgb(0, 0, 0); stroke-opacity: 1; stroke-width: 1px; opacity: 1;"/><g class="points"/></g></g></g><g class="overplot"/><path class="xlines-above crisp" d="M29.603674540682416,353.2066929133858H296.06299212598424" style="fill: none; stroke-width: 1px; stroke: rgb(0, 0, 0); stroke-opacity: 1;"/><path class="ylines-above crisp" d="M30.103674540682416,23.543307086614167V352.7066929133858" style="fill: none; stroke-width: 1px; stroke: rgb(0, 0, 0); stroke-opacity: 1;"/><g class="overlines-above"/><g class="xaxislayer-above"><path class="xtick ticks crisp" d="M0,352.7066929133858v-5" transform="translate(45.203674540682414,0)" style="stroke: rgb(0, 0, 0); stroke-opacity: 1; stroke-width: 1px;"/><path class="xtick ticks crisp" d="M0,352.7066929133858v-5" transform="translate(96.56367454068241,0)" style="stroke: rgb(0, 0, 0); stroke-opacity: 1; stroke-width: 1px;"/><path class="xtick ticks crisp" d="M0,352.7066929133858v-5" transform="translate(147.9236745406824,0)" style="stroke: rgb(0, 0, 0); stroke-opacity: 1; stroke-width: 1px;"/><path class="xtick ticks crisp" d="M0,352.7066929133858v-5" transform="translate(199.28367454068243,0)" style="stroke: rgb(0, 0, 0); stroke-opacity: 1; stroke-width: 1px;"/><path class="xtick ticks crisp" d="M0,352.7066929133858v-5" transform="translate(250.6436745406824,0)" style="stroke: rgb(0, 0, 0); stroke-opacity: 1; stroke-width: 1px;"/><g class="xtick"><text text-anchor="middle" x="0" y="366.90669291338577" transform="translate(45.203674540682414,0)" style="font-family: sans-serif; font-size: 11px; fill: rgb(0, 0, 0); fill-opacity: 1; white-space: pre;">-2.0</text></g><g class="xtick"><text text-anchor="middle" x="0" y="366.90669291338577" transform="translate(96.56367454068241,0)" style="font-family: sans-serif; font-size: 11px; fill: rgb(0, 0, 0); fill-opacity: 1; white-space: pre;">-1.5</text></g><g class="xtick"><text text-anchor="middle" x="0" y="366.90669291338577" transform="translate(147.9236745406824,0)" style="font-family: sans-serif; font-size: 11px; fill: rgb(0, 0, 0); fill-opacity: 1; white-space: pre;">-1.0</text></g><g class="xtick"><text text-anchor="middle" x="0" y="366.90669291338577" transform="translate(199.28367454068243,0)" style="font-family: sans-serif; font-size: 11px; fill: rgb(0, 0, 0); fill-opacity: 1; white-space: pre;">-0.5</text></g><g class="xtick"><text text-anchor="middle" x="0" y="366.90669291338577" transform="translate(250.6436745406824,0)" style="font-family: sans-serif; font-size: 11px; fill: rgb(0, 0, 0); fill-opacity: 1; white-space: pre;">0.0</text></g></g><g class="yaxislayer-above"><path class="ytick ticks crisp" d="M30.603674540682416,0h5" transform="translate(0,343.3933070866142)" style="stroke: rgb(0, 0, 0); stroke-opacity: 1; stroke-width: 1px;"/><path class="ytick ticks crisp" d="M30.603674540682416,0h5" transform="translate(0,277.0333070866142)" style="stroke: rgb(0, 0, 0); stroke-opacity: 1; stroke-width: 1px;"/><path class="ytick ticks crisp" d="M30.603674540682416,0h5" transform="translate(0,210.68330708661415)" style="stroke: rgb(0, 0, 0); stroke-opacity: 1; stroke-width: 1px;"/><path class="ytick ticks crisp" d="M30.603674540682416,0h5" transform="translate(0,144.33330708661418)" style="stroke: rgb(0, 0, 0); stroke-opacity: 1; stroke-width: 1px;"/><path class="ytick ticks crisp" d="M30.603674540682416,0h5" transform="translate(0,77.98330708661416)" style="stroke: rgb(0, 0, 0); stroke-opacity: 1; stroke-width: 1px;"/><g class="ytick"><text text-anchor="end" x="27.403674540682417" y="3.8499999999999996" transform="translate(0,343.3933070866142)" style="font-family: sans-serif; font-size: 11px; fill: rgb(0, 0, 0); fill-opacity: 1; white-space: pre;">0</text></g><g class="ytick"><text text-anchor="end" x="27.403674540682417" y="3.8499999999999996" transform="translate(0,277.0333070866142)" style="font-family: sans-serif; font-size: 11px; fill: rgb(0, 0, 0); fill-opacity: 1; white-space: pre;">25</text></g><g class="ytick"><text text-anchor="end" x="27.403674540682417" y="3.8499999999999996" transform="translate(0,210.68330708661415)" style="font-family: sans-serif; font-size: 11px; fill: rgb(0, 0, 0); fill-opacity: 1; white-space: pre;">50</text></g><g class="ytick"><text text-anchor="end" x="27.403674540682417" y="3.8499999999999996" transform="translate(0,144.33330708661418)" style="font-family: sans-serif; font-size: 11px; fill: rgb(0, 0, 0); fill-opacity: 1; white-space: pre;">75</text></g><g class="ytick"><text text-anchor="end" x="27.403674540682417" y="3.8499999999999996" transform="translate(0,77.98330708661416)" style="font-family: sans-serif; font-size: 11px; fill: rgb(0, 0, 0); fill-opacity: 1; white-space: pre;">100</text></g></g><g class="overaxes-above"/></g><g class="subplot x2y2"><g class="layer-subplot"><g class="shapelayer"/><g class="imagelayer"/></g><g class="gridlayer"><g class="x2"><path class="x2grid crisp" d="M0,23.543307086614167v329.1633858267716" transform="translate(366.6836745406825,0)" style="stroke: rgb(0, 0, 0); stroke-opacity: 0.1; stroke-width: 0.5px;"/><path class="x2grid crisp" d="M0,23.543307086614167v329.1633858267716" transform="translate(420.3736745406825,0)" style="stroke: rgb(0, 0, 0); stroke-opacity: 0.1; stroke-width: 0.5px;"/><path class="x2grid crisp" d="M0,23.543307086614167v329.1633858267716" transform="translate(474.07367454068253,0)" style="stroke: rgb(0, 0, 0); stroke-opacity: 0.1; stroke-width: 0.5px;"/><path class="x2grid crisp" d="M0,23.543307086614167v329.1633858267716" transform="translate(527.7636745406825,0)" style="stroke: rgb(0, 0, 0); stroke-opacity: 0.1; stroke-width: 0.5px;"/><path class="x2grid crisp" d="M0,23.543307086614167v329.1633858267716" transform="translate(581.4636745406825,0)" style="stroke: rgb(0, 0, 0); stroke-opacity: 0.1; stroke-width: 0.5px;"/></g><g class="y2"><path class="y2grid crisp" d="M330.6036745406825,0h265.45931758530185" transform="translate(0,343.3933070866142)" style="stroke: rgb(0, 0, 0); stroke-opacity: 0.1; stroke-width: 0.5px;"/><path class="y2grid crisp" d="M330.6036745406825,0h265.45931758530185" transform="translate(0,271.5133070866142)" style="stroke: rgb(0, 0, 0); stroke-opacity: 0.1; stroke-width: 0.5px;"/><path class="y2grid crisp" d="M330.6036745406825,0h265.45931758530185" transform="translate(0,199.62330708661418)" style="stroke: rgb(0, 0, 0); stroke-opacity: 0.1; stroke-width: 0.5px;"/><path class="y2grid crisp" d="M330.6036745406825,0h265.45931758530185" transform="translate(0,127.74330708661417)" style="stroke: rgb(0, 0, 0); stroke-opacity: 0.1; stroke-width: 0.5px;"/><path class="y2grid crisp" d="M330.6036745406825,0h265.45931758530185" transform="translate(0,55.86330708661417)" style="stroke: rgb(0, 0, 0); stroke-opacity: 0.1; stroke-width: 0.5px;"/></g></g><g class="zerolinelayer"/><path class="xlines-below"/><path class="ylines-below"/><g class="overlines-below"/><g class="xaxislayer-below"/><g class="yaxislayer-below"/><g class="overaxes-below"/><g class="plot" transform="translate(330.6036745406825, 23.543307086614167)" clip-path="url(#clip555d49x2y2plot)"><g class="scatterlayer mlayer"><g class="trace scatter trace4735cd" style="stroke-miterlimit: 2;"><path class="js-fill js-tozero" d="M14.6,319.85L14.6,319.85L14.6,311.22L14.6,319.85L25.34,319.85L25.34,311.22L14.6,311.22" style="fill: rgb(0, 0, 255); fill-opacity: 1; stroke-width: 0;"/><path class="js-line" d="M14.6,311.22L14.6,319.85L25.34,319.85L25.34,311.22L14.6,311.22" style="vector-effect: non-scaling-stroke; fill: none; stroke: rgb(0, 0, 0); stroke-opacity: 1; stroke-width: 1px; opacity: 1;"/><g class="points"/></g><g class="trace scatter tracef1c543" style="stroke-miterlimit: 2;"><path class="js-fill js-tozero" d="M25.34,319.85L25.34,319.85L25.34,311.22L25.34,319.85L36.08,319.85L36.08,311.22L25.34,311.22" style="fill: rgb(0, 0, 255); fill-opacity: 1; stroke-width: 0;"/><path class="js-line" d="M25.34,311.22L25.34,319.85L36.08,319.85L36.08,311.22L25.34,311.22" style="vector-effect: non-scaling-stroke; fill: none; stroke: rgb(0, 0, 0); stroke-opacity: 1; stroke-width: 1px; opacity: 1;"/><g class="points"/></g><g class="trace scatter trace9322e6" style="stroke-miterlimit: 2;"><path class="js-fill js-tozero" d="M36.08,319.85L36.08,319.85L36.08,311.22L36.08,319.85L46.82,319.85L46.82,311.22L36.08,311.22" style="fill: rgb(0, 0, 255); fill-opacity: 1; stroke-width: 0;"/><path class="js-line" d="M36.08,311.22L36.08,319.85L46.82,319.85L46.82,311.22L36.08,311.22" style="vector-effect: non-scaling-stroke; fill: none; stroke: rgb(0, 0, 0); stroke-opacity: 1; stroke-width: 1px; opacity: 1;"/><g class="points"/></g><g class="trace scatter trace2e16b8" style="stroke-miterlimit: 2;"><path class="js-fill js-tozero" d="M46.82,319.85L46.82,319.85L46.82,316.97L46.82,319.85L57.56,319.85L57.56,316.97L46.82,316.97" style="fill: rgb(0, 0, 255); fill-opacity: 1; stroke-width: 0;"/><path class="js-line" d="M46.82,316.97L46.82,319.85L57.56,319.85L57.56,316.97L46.82,316.97" style="vector-effect: non-scaling-stroke; fill: none; stroke: rgb(0, 0, 0); stroke-opacity: 1; stroke-width: 1px; opacity: 1;"/><g class="points"/></g><g class="trace scatter traceed578a" style="stroke-miterlimit: 2;"><path class="js-fill js-tozero" d="M57.56,319.85L57.56,319.85L57.56,308.35L57.56,319.85L68.3,319.85L68.3,308.35L57.56,308.35" style="fill: rgb(0, 0, 255); fill-opacity: 1; stroke-width: 0;"/><path class="js-line" d="M57.56,308.35L57.56,319.85L68.3,319.85L68.3,308.35L57.56,308.35" style="vector-effect: non-scaling-stroke; fill: none; stroke: rgb(0, 0, 0); stroke-opacity: 1; stroke-width: 1px; opacity: 1;"/><g class="points"/></g><g class="trace scatter trace32a4f1" style="stroke-miterlimit: 2;"><path class="js-fill js-tozero" d="M68.3,319.85L68.3,319.85L68.3,296.85L68.3,319.85L79.03,319.85L79.03,296.85L68.3,296.85" style="fill: rgb(0, 0, 255); fill-opacity: 1; stroke-width: 0;"/><path class="js-line" d="M68.3,296.85L68.3,319.85L79.03,319.85L79.03,296.85L68.3,296.85" style="vector-effect: non-scaling-stroke; fill: none; stroke: rgb(0, 0, 0); stroke-opacity: 1; stroke-width: 1px; opacity: 1;"/><g class="points"/></g><g class="trace scatter traceb62b05" style="stroke-miterlimit: 2;"><path class="js-fill js-tozero" d="M79.03,319.85L79.03,319.85L79.03,285.34L79.03,319.85L89.77,319.85L89.77,285.34L79.03,285.34" style="fill: rgb(0, 0, 255); fill-opacity: 1; stroke-width: 0;"/><path class="js-line" d="M79.03,285.34L79.03,319.85L89.77,319.85L89.77,285.34L79.03,285.34" style="vector-effect: non-scaling-stroke; fill: none; stroke: rgb(0, 0, 0); stroke-opacity: 1; stroke-width: 1px; opacity: 1;"/><g class="points"/></g><g class="trace scatter tracedd8798" style="stroke-miterlimit: 2;"><path class="js-fill js-tozero" d="M89.77,319.85L89.77,319.85L89.77,233.59L89.77,319.85L100.51,319.85L100.51,233.59L89.77,233.59" style="fill: rgb(0, 0, 255); fill-opacity: 1; stroke-width: 0;"/><path class="js-line" d="M89.77,233.59L89.77,319.85L100.51,319.85L100.51,233.59L89.77,233.59" style="vector-effect: non-scaling-stroke; fill: none; stroke: rgb(0, 0, 0); stroke-opacity: 1; stroke-width: 1px; opacity: 1;"/><g class="points"/></g><g class="trace scatter trace4fbc7e" style="stroke-miterlimit: 2;"><path class="js-fill js-tozero" d="M100.51,319.85L100.51,319.85L100.51,115.7L100.51,319.85L111.25,319.85L111.25,115.7L100.51,115.7" style="fill: rgb(0, 0, 255); fill-opacity: 1; stroke-width: 0;"/><path class="js-line" d="M100.51,115.7L100.51,319.85L111.25,319.85L111.25,115.7L100.51,115.7" style="vector-effect: non-scaling-stroke; fill: none; stroke: rgb(0, 0, 0); stroke-opacity: 1; stroke-width: 1px; opacity: 1;"/><g class="points"/></g><g class="trace scatter tracecffc6d" style="stroke-miterlimit: 2;"><path class="js-fill js-tozero" d="M111.25,319.85L111.25,319.85L111.25,118.58L111.25,319.85L121.99,319.85L121.99,118.58L111.25,118.58" style="fill: rgb(0, 0, 255); fill-opacity: 1; stroke-width: 0;"/><path class="js-line" d="M111.25,118.58L111.25,319.85L121.99,319.85L121.99,118.58L111.25,118.58" style="vector-effect: non-scaling-stroke; fill: none; stroke: rgb(0, 0, 0); stroke-opacity: 1; stroke-width: 1px; opacity: 1;"/><g class="points"/></g><g class="trace scatter tracefebdbe" style="stroke-miterlimit: 2;"><path class="js-fill js-tozero" d="M121.99,319.85L121.99,319.85L121.99,43.82L121.99,319.85L132.73,319.85L132.73,43.82L121.99,43.82" style="fill: rgb(0, 0, 255); fill-opacity: 1; stroke-width: 0;"/><path class="js-line" d="M121.99,43.82L121.99,319.85L132.73,319.85L132.73,43.82L121.99,43.82" style="vector-effect: non-scaling-stroke; fill: none; stroke: rgb(0, 0, 0); stroke-opacity: 1; stroke-width: 1px; opacity: 1;"/><g class="points"/></g><g class="trace scatter tracea5565e" style="stroke-miterlimit: 2;"><path class="js-fill js-tozero" d="M132.73,319.85L132.73,319.85L132.73,29.44L132.73,319.85L143.47,319.85L143.47,29.44L132.73,29.44" style="fill: rgb(0, 0, 255); fill-opacity: 1; stroke-width: 0;"/><path class="js-line" d="M132.73,29.44L132.73,319.85L143.47,319.85L143.47,29.44L132.73,29.44" style="vector-effect: non-scaling-stroke; fill: none; stroke: rgb(0, 0, 0); stroke-opacity: 1; stroke-width: 1px; opacity: 1;"/><g class="points"/></g><g class="trace scatter trace94126f" style="stroke-miterlimit: 2;"><path class="js-fill js-tozero" d="M143.47,319.85L143.47,319.85L143.47,9.32L143.47,319.85L154.21,319.85L154.21,9.32L143.47,9.32" style="fill: rgb(0, 0, 255); fill-opacity: 1; stroke-width: 0;"/><path class="js-line" d="M143.47,9.32L143.47,319.85L154.21,319.85L154.21,9.32L143.47,9.32" style="vector-effect: non-scaling-stroke; fill: none; stroke: rgb(0, 0, 0); stroke-opacity: 1; stroke-width: 1px; opacity: 1;"/><g class="points"/></g><g class="trace scatter tracea45788" style="stroke-miterlimit: 2;"><path class="js-fill js-tozero" d="M154.21,319.85L154.21,319.85L154.21,29.44L154.21,319.85L164.95,319.85L164.95,29.44L154.21,29.44" style="fill: rgb(0, 0, 255); fill-opacity: 1; stroke-width: 0;"/><path class="js-line" d="M154.21,29.44L154.21,319.85L164.95,319.85L164.95,29.44L154.21,29.44" style="vector-effect: non-scaling-stroke; fill: none; stroke: rgb(0, 0, 0); stroke-opacity: 1; stroke-width: 1px; opacity: 1;"/><g class="points"/></g><g class="trace scatter tracef3b5b6" style="stroke-miterlimit: 2;"><path class="js-fill js-tozero" d="M164.95,319.85L164.95,319.85L164.95,35.19L164.95,319.85L175.69,319.85L175.69,35.19L164.95,35.19" style="fill: rgb(0, 0, 255); fill-opacity: 1; stroke-width: 0;"/><path class="js-line" d="M164.95,35.19L164.95,319.85L175.69,319.85L175.69,35.19L164.95,35.19" style="vector-effect: non-scaling-stroke; fill: none; stroke: rgb(0, 0, 0); stroke-opacity: 1; stroke-width: 1px; opacity: 1;"/><g class="points"/></g><g class="trace scatter trace997c80" style="stroke-miterlimit: 2;"><path class="js-fill js-tozero" d="M175.69,319.85L175.69,319.85L175.69,184.71L175.69,319.85L186.42,319.85L186.42,184.71L175.69,184.71" style="fill: rgb(0, 0, 255); fill-opacity: 1; stroke-width: 0;"/><path class="js-line" d="M175.69,184.71L175.69,319.85L186.42,319.85L186.42,184.71L175.69,184.71" style="vector-effect: non-scaling-stroke; fill: none; stroke: rgb(0, 0, 0); stroke-opacity: 1; stroke-width: 1px; opacity: 1;"/><g class="points"/></g><g class="trace scatter trace0fb8c3" style="stroke-miterlimit: 2;"><path class="js-fill js-tozero" d="M186.42,319.85L186.42,319.85L186.42,250.84L186.42,319.85L197.16,319.85L197.16,250.84L186.42,250.84" style="fill: rgb(0, 0, 255); fill-opacity: 1; stroke-width: 0;"/><path class="js-line" d="M186.42,250.84L186.42,319.85L197.16,319.85L197.16,250.84L186.42,250.84" style="vector-effect: non-scaling-stroke; fill: none; stroke: rgb(0, 0, 0); stroke-opacity: 1; stroke-width: 1px; opacity: 1;"/><g class="points"/></g><g class="trace scatter trace4b8342" style="stroke-miterlimit: 2;"><path class="js-fill js-tozero" d="M197.16,319.85L197.16,319.85L197.16,256.59L197.16,319.85L207.9,319.85L207.9,256.59L197.16,256.59" style="fill: rgb(0, 0, 255); fill-opacity: 1; stroke-width: 0;"/><path class="js-line" d="M197.16,256.59L197.16,319.85L207.9,319.85L207.9,256.59L197.16,256.59" style="vector-effect: non-scaling-stroke; fill: none; stroke: rgb(0, 0, 0); stroke-opacity: 1; stroke-width: 1px; opacity: 1;"/><g class="points"/></g><g class="trace scatter traceb10c9a" style="stroke-miterlimit: 2;"><path class="js-fill js-tozero" d="M207.9,319.85L207.9,319.85L207.9,259.47L207.9,319.85L218.64,319.85L218.64,259.47L207.9,259.47" style="fill: rgb(0, 0, 255); fill-opacity: 1; stroke-width: 0;"/><path class="js-line" d="M207.9,259.47L207.9,319.85L218.64,319.85L218.64,259.47L207.9,259.47" style="vector-effect: non-scaling-stroke; fill: none; stroke: rgb(0, 0, 0); stroke-opacity: 1; stroke-width: 1px; opacity: 1;"/><g class="points"/></g><g class="trace scatter trace5a6597" style="stroke-miterlimit: 2;"><path class="js-fill js-tozero" d="M218.64,319.85L218.64,319.85L218.64,316.97L218.64,319.85L229.38,319.85L229.38,316.97L218.64,316.97" style="fill: rgb(0, 0, 255); fill-opacity: 1; stroke-width: 0;"/><path class="js-line" d="M218.64,316.97L218.64,319.85L229.38,319.85L229.38,316.97L218.64,316.97" style="vector-effect: non-scaling-stroke; fill: none; stroke: rgb(0, 0, 0); stroke-opacity: 1; stroke-width: 1px; opacity: 1;"/><g class="points"/></g><g class="trace scatter trace41fdbd" style="stroke-miterlimit: 2;"><path class="js-fill js-tozero" d="M229.38,319.85L229.38,319.85L229.38,314.1L229.38,319.85L240.12,319.85L240.12,314.1L229.38,314.1" style="fill: rgb(0, 0, 255); fill-opacity: 1; stroke-width: 0;"/><path class="js-line" d="M229.38,314.1L229.38,319.85L240.12,319.85L240.12,314.1L229.38,314.1" style="vector-effect: non-scaling-stroke; fill: none; stroke: rgb(0, 0, 0); stroke-opacity: 1; stroke-width: 1px; opacity: 1;"/><g class="points"/></g><g class="trace scatter traceaccd1f" style="stroke-miterlimit: 2;"><path class="js-fill js-tozero" d="M240.12,319.85L240.12,319.85L240.12,314.1L240.12,319.85L250.86,319.85L250.86,314.1L240.12,314.1" style="fill: rgb(0, 0, 255); fill-opacity: 1; stroke-width: 0;"/><path class="js-line" d="M240.12,314.1L240.12,319.85L250.86,319.85L250.86,314.1L240.12,314.1" style="vector-effect: non-scaling-stroke; fill: none; stroke: rgb(0, 0, 0); stroke-opacity: 1; stroke-width: 1px; opacity: 1;"/><g class="points"/></g></g></g><g class="overplot"/><path class="xlines-above crisp" d="M329.6036745406825,353.2066929133858H596.0629921259844" style="fill: none; stroke-width: 1px; stroke: rgb(0, 0, 0); stroke-opacity: 1;"/><path class="ylines-above crisp" d="M330.1036745406825,23.543307086614167V352.7066929133858" style="fill: none; stroke-width: 1px; stroke: rgb(0, 0, 0); stroke-opacity: 1;"/><g class="overlines-above"/><g class="xaxislayer-above"><path class="x2tick ticks crisp" d="M0,352.7066929133858v-5" transform="translate(366.6836745406825,0)" style="stroke: rgb(0, 0, 0); stroke-opacity: 1; stroke-width: 1px;"/><path class="x2tick ticks crisp" d="M0,352.7066929133858v-5" transform="translate(420.3736745406825,0)" style="stroke: rgb(0, 0, 0); stroke-opacity: 1; stroke-width: 1px;"/><path class="x2tick ticks crisp" d="M0,352.7066929133858v-5" transform="translate(474.07367454068253,0)" style="stroke: rgb(0, 0, 0); stroke-opacity: 1; stroke-width: 1px;"/><path class="x2tick ticks crisp" d="M0,352.7066929133858v-5" transform="translate(527.7636745406825,0)" style="stroke: rgb(0, 0, 0); stroke-opacity: 1; stroke-width: 1px;"/><path class="x2tick ticks crisp" d="M0,352.7066929133858v-5" transform="translate(581.4636745406825,0)" style="stroke: rgb(0, 0, 0); stroke-opacity: 1; stroke-width: 1px;"/><g class="x2tick"><text text-anchor="middle" x="0" y="366.90669291338577" transform="translate(366.6836745406825,0)" style="font-family: sans-serif; font-size: 11px; fill: rgb(0, 0, 0); fill-opacity: 1; white-space: pre;">0.0</text></g><g class="x2tick"><text text-anchor="middle" x="0" y="366.90669291338577" transform="translate(420.3736745406825,0)" style="font-family: sans-serif; font-size: 11px; fill: rgb(0, 0, 0); fill-opacity: 1; white-space: pre;">0.5</text></g><g class="x2tick"><text text-anchor="middle" x="0" y="366.90669291338577" transform="translate(474.07367454068253,0)" style="font-family: sans-serif; font-size: 11px; fill: rgb(0, 0, 0); fill-opacity: 1; white-space: pre;">1.0</text></g><g class="x2tick"><text text-anchor="middle" x="0" y="366.90669291338577" transform="translate(527.7636745406825,0)" style="font-family: sans-serif; font-size: 11px; fill: rgb(0, 0, 0); fill-opacity: 1; white-space: pre;">1.5</text></g><g class="x2tick"><text text-anchor="middle" x="0" y="366.90669291338577" transform="translate(581.4636745406825,0)" style="font-family: sans-serif; font-size: 11px; fill: rgb(0, 0, 0); fill-opacity: 1; white-space: pre;">2.0</text></g></g><g class="yaxislayer-above"><path class="y2tick ticks crisp" d="M330.6036745406825,0h5" transform="translate(0,343.3933070866142)" style="stroke: rgb(0, 0, 0); stroke-opacity: 1; stroke-width: 1px;"/><path class="y2tick ticks crisp" d="M330.6036745406825,0h5" transform="translate(0,271.5133070866142)" style="stroke: rgb(0, 0, 0); stroke-opacity: 1; stroke-width: 1px;"/><path class="y2tick ticks crisp" d="M330.6036745406825,0h5" transform="translate(0,199.62330708661418)" style="stroke: rgb(0, 0, 0); stroke-opacity: 1; stroke-width: 1px;"/><path class="y2tick ticks crisp" d="M330.6036745406825,0h5" transform="translate(0,127.74330708661417)" style="stroke: rgb(0, 0, 0); stroke-opacity: 1; stroke-width: 1px;"/><path class="y2tick ticks crisp" d="M330.6036745406825,0h5" transform="translate(0,55.86330708661417)" style="stroke: rgb(0, 0, 0); stroke-opacity: 1; stroke-width: 1px;"/><g class="y2tick"><text text-anchor="end" x="327.4036745406825" y="3.8499999999999996" transform="translate(0,343.3933070866142)" style="font-family: sans-serif; font-size: 11px; fill: rgb(0, 0, 0); fill-opacity: 1; white-space: pre;">0</text></g><g class="y2tick"><text text-anchor="end" x="327.4036745406825" y="3.8499999999999996" transform="translate(0,271.5133070866142)" style="font-family: sans-serif; font-size: 11px; fill: rgb(0, 0, 0); fill-opacity: 1; white-space: pre;">25</text></g><g class="y2tick"><text text-anchor="end" x="327.4036745406825" y="3.8499999999999996" transform="translate(0,199.62330708661418)" style="font-family: sans-serif; font-size: 11px; fill: rgb(0, 0, 0); fill-opacity: 1; white-space: pre;">50</text></g><g class="y2tick"><text text-anchor="end" x="327.4036745406825" y="3.8499999999999996" transform="translate(0,127.74330708661417)" style="font-family: sans-serif; font-size: 11px; fill: rgb(0, 0, 0); fill-opacity: 1; white-space: pre;">75</text></g><g class="y2tick"><text text-anchor="end" x="327.4036745406825" y="3.8499999999999996" transform="translate(0,55.86330708661417)" style="font-family: sans-serif; font-size: 11px; fill: rgb(0, 0, 0); fill-opacity: 1; white-space: pre;">100</text></g></g><g class="overaxes-above"/></g></g><g class="polarlayer"/><g class="ternarylayer"/><g class="geolayer"/><g class="pielayer"/><g class="glimages"/><defs id="topdefs-555d49"><g class="clips"/></defs><g class="layer-above"><g class="imagelayer"/><g class="shapelayer"/></g><g class="infolayer"><g class="g-gtitle"/><g class="g-xtitle" transform="translate(0,-10.70669291338578)"><text class="xtitle" x="163.33333333333334" y="407.7066929133858" text-anchor="middle" style="font-family: sans-serif; font-size: 15px; fill: rgb(0, 0, 0); opacity: 1; font-weight: normal; white-space: pre;">p1</text></g><g class="g-x2title" transform="translate(0,-10.70669291338578)"><text class="x2title" x="463.3333333333334" y="407.7066929133858" text-anchor="middle" style="font-family: sans-serif; font-size: 15px; fill: rgb(0, 0, 0); opacity: 1; font-weight: normal; white-space: pre;">p2</text></g><g class="g-ytitle"/><g class="g-y2title"/></g></svg>