<svg class="main-svg" xmlns="http://www.w3.org/2000/svg" xmlns:xlink="http://www.w3.org/1999/xlink" width="600" height="400" viewBox="0 0 600 400"><rect x="0" y="0" width="600" height="400" style="fill: rgb(255, 255, 255); fill-opacity: 1;"/><defs id="defs-03fcef"><g class="clips"><clipPath id="clip03fcefxyplot" class="plotclip"><rect width="541.2926509186352" height="88.373031496063"/></clipPath><clipPath id="clip03fcefx2y2plot" class="plotclip"><rect width="253.3759842519685" height="206.2037401574803"/></clipPath><clipPath id="clip03fcefx3y3plot" class="plotclip"><rect width="253.3759842519685" height="206.2037401574803"/></clipPath><clipPath class="axesclip" id="clip03fcefx"><rect x="54.77034120734907" y="0" width="541.2926509186352" height="400"/></clipPath><clipPath class="axesclip" id="clip03fcefy"><rect x="0" y="23.543307086614167" width="600" height="88.373031496063"/></clipPath><clipPath class="axesclip" id="clip03fcefxy"><rect x="54.77034120734907" y="23.543307086614167" width="541.2926509186352" height="88.373031496063"/></clipPath><clipPath class="axesclip" id="clip03fcefy2"><rect x="0" y="160.2529527559055" width="600" height="206.2037401574803"/></clipPath><clipPath class="axesclip" id="clip03fcefxy2"><rect x="54.77034120734907" y="160.2529527559055" width="541.2926509186352" height="206.2037401574803"/></clipPath><clipPath class="axesclip" id="clip03fcefy3"><rect x="0" y="160.2529527559055" width="600" height="206.2037401574803"/></clipPath><clipPath class="axesclip" id="clip03fcefxy3"><rect x="54.77034120734907" y="160.2529527559055" width="541.2926509186352" height="206.2037401574803"/></clipPath><clipPath class="axesclip" id="clip03fcefx2"><rect x="54.77034120734907" y="0" width="253.3759842519685" height="400"/></clipPath><clipPath class="axesclip" id="clip03fcefx2y"><rect x="54.77034120734907" y="23.543307086614167" width="253.3759842519685" height="88.373031496063"/></clipPath><clipPath class="axesclip" id="clip03fcefx2y2"><rect x="54.77034120734907" y="160.2529527559055" width="253.3759842519685" height="206.2037401574803"/></clipPath><clipPath class="axesclip" id="clip03fcefx2y3"><rect x="54.77034120734907" y="160.2529527559055" width="253.3759842519685" height="206.2037401574803"/></clipPath><clipPath class="axesclip" id="clip03fcefx3"><rect x="342.6870078740157" y="0" width="253.3759842519685" height="400"/></clipPath><clipPath class="axesclip" id="clip03fcefx3y"><rect x="342.6870078740157" y="23.543307086614167" width="253.3759842519685" height="88.373031496063"/></clipPath><clipPath class="axesclip" id="clip03fcefx3y2"><rect x="342.6870078740157" y="160.2529527559055" width="253.3759842519685" height="206.2037401574803"/></clipPath><clipPath class="axesclip" id="clip03fcefx3y3"><rect x="342.6870078740157" y="160.2529527559055" width="253.3759842519685" height="206.2037401574803"/></clipPath></g><g class="gradients"/></defs><g class="bglayer"><rect class="bg" x="54.77034120734907" y="23.543307086614167" width="541.2926509186352" height="88.373031496063" style="fill: rgb(255, 255, 255); fill-opacity: 1; stroke-width: 0;"/><rect class="bg" x="54.77034120734907" y="160.2529527559055" width="253.3759842519685" height="206.2037401574803" style="fill: rgb(255, 255, 255); fill-opacity: 1; stroke-width: 0;"/><rect class="bg" x="342.6870078740157" y="160.2529527559055" width="253.3759842519685" height="206.2037401574803" style="fill: rgb(255, 255, 255); fill-opacity: 1; stroke-width: 0;"/></g><g class="layer-below"><g class="imagelayer"/><g class="shapelayer"/></g><g class="cartesianlayer"><g class="subplot xy"><g class="layer-subplot"><g class="shapelayer"/><g class="imagelayer"/></g><g class="gridlayer"><g class="x"><path class="xgrid crisp" d="M0,23.543307086614167v88.373031496063" transform="translate(69.58034120734906,0)" style="stroke: rgb(0, 0, 0); stroke-opacity: 0.1; stroke-width: 0.5px;"/><path class="xgrid crisp" d="M0,23.543307086614167v88.373031496063" transform="translate(197.37034120734907,0)" style="stroke: rgb(0, 0, 0); stroke-opacity: 0.1; stroke-width: 0.5px;"/><path class="xgrid crisp" d="M0,23.543307086614167v88.373031496063" transform="translate(325.16034120734906,0)" style="stroke: rgb(0, 0, 0); stroke-opacity: 0.1; stroke-width: 0.5px;"/><path class="xgrid crisp" d="M0,23.543307086614167v88.373031496063" transform="translate(452.9503412073491,0)" style="stroke: rgb(0, 0, 0); stroke-opacity: 0.1; stroke-width: 0.5px;"/><path class="xgrid crisp" d="M0,23.543307086614167v88.373031496063" transform="translate(580.740341207349,0)" style="stroke: rgb(0, 0, 0); stroke-opacity: 0.1; stroke-width: 0.5px;"/></g><g class="y"><path class="ygrid crisp" d="M54.77034120734907,0h541.2926509186352" transform="translate(0,105.85330708661417)" style="stroke: rgb(0, 0, 0); stroke-opacity: 0.1; stroke-width: 0.5px;"/><path class="ygrid crisp" d="M54.77034120734907,0h541.2926509186352" transform="translate(0,91.77330708661417)" style="stroke: rgb(0, 0, 0); stroke-opacity: 0.1; stroke-width: 0.5px;"/><path class="ygrid crisp" d="M54.77034120734907,0h541.2926509186352" transform="translate(0,77.69330708661417)" style="stroke: rgb(0, 0, 0); stroke-opacity: 0.1; stroke-width: 0.5px;"/><path class="ygrid crisp" d="M54.77034120734907,0h541.2926509186352" transform="translate(0,63.61330708661417)" style="stroke: rgb(0, 0, 0); stroke-opacity: 0.1; stroke-width: 0.5px;"/><path class="ygrid crisp" d="M54.77034120734907,0h541.2926509186352" transform="translate(0,49.533307086614165)" style="stroke: rgb(0, 0, 0); stroke-opacity: 0.1; stroke-width: 0.5px;"/><path class="ygrid crisp" d="M54.77034120734907,0h541.2926509186352" transform="translate(0,35.45330708661417)" style="stroke: rgb(0, 0, 0); stroke-opacity: 0.1; stroke-width: 0.5px;"/></g></g><g class="zerolinelayer"/><path class="xlines-below"/><path class="ylines-below"/><g class="overlines-below"/><g class="xaxislayer-below"/><g class="yaxislayer-below"/><g class="overaxes-below"/><g class="plot" transform="translate(54.77034120734907, 23.543307086614167)" clip-path="url(#clip03fcefxyplot)"><g class="scatterlayer mlayer"><g class="trace scatter trace1c1304" style="stroke-miterlimit: 2; opacity: 1;"><path class="js-line" d="M15.32,-320.34L18.9,-24.55L21.45,-46.61L21.96,14.29L24.01,14.29L24.52,41.19L26.05,41.19L26.57,71.71L27.08,78.04L27.59,77.85L28.1,77.85L28.61,77.85L29.12,81.19L29.63,81.19L30.14,78.11L31.17,81.77L31.68,81.77L32.7,81.77L33.21,50.13L34.23,-37.66L34.74,28.99L35.26,28.99L35.77,38.08L36.28,-15.7L36.79,-11.86L37.3,47.88L37.81,47.88L38.32,61.76L38.83,74.64L39.34,65.53L40.37,66.12L40.88,61.43L41.39,72.34L41.9,61.43L42.41,74.12L42.92,62.9L43.43,61.43L43.94,73.95L44.46,73.95L44.97,66.22L45.48,64.22L45.99,66.22L46.5,80.75L47.01,77.07L47.52,68.02L48.55,80L49.06,80L50.08,82.02L50.59,76.46L51.1,74.13L51.61,62.98L52.12,67L52.63,57.79L53.15,41.9L53.66,53.4L54.17,41.69L54.68,53.4L55.19,41.69L55.7,75.2L56.21,67.41L56.72,71.93L57.75,81.39L58.26,78.99L59.79,49.26L60.3,49.26L60.81,49.26L61.32,59.17L62.35,76.2L62.86,76.62L63.37,72.38L63.88,76.2L64.39,80.84L64.9,73.81L65.41,75.32L65.92,57.96L66.44,57.96L66.95,53.73L67.46,40.38L67.97,52.7L68.48,44.28L68.99,52.7L71.04,52.7L71.55,62.27L72.06,61.21L72.57,61.82L73.08,61.22L73.59,61.22L74.1,71.61L74.61,59.77L75.13,61.21L75.64,53.68L76.15,67.16L76.66,57.09L77.68,59.24L78.19,67.88L78.7,69.18L79.22,73.78L79.73,61.92L80.24,64.42L80.75,61.92L81.26,80.95L81.77,65.44L82.28,55.25L82.79,63.94L83.3,61.43L83.82,76.23L84.33,79.67L84.84,75.39L85.86,64.11L86.37,73.08L86.88,79.09L87.39,73.08L87.9,74.61L88.42,62.16L89.44,51.89L89.95,51.89L91.48,51.89L91.99,52.68L92.51,51.89L93.02,76.47L93.53,57.12L94.04,66.71L94.55,77.74L95.06,76.74L95.57,76.74L96.08,76.74L96.59,56.49L97.11,77.74L97.62,69.93L98.13,77.74L99.15,61.42L99.66,81.61L100.17,61.42L100.68,61.95L101.2,81.61L102.22,72.42L102.73,75.61L103.24,81.77L103.75,81.19L104.26,81.77L105.28,81.77L105.8,54.03L107.84,12.49L108.35,55.72L108.86,67.35L109.37,55.72L109.89,82.1L110.4,51.19L111.42,51.19L111.93,80.35L112.44,74.17L112.95,80.35L113.46,77.68L113.97,80.35L114.49,77.68L115,52.92L115.51,64.58L116.02,53.42L116.53,77.55L117.04,76.73L117.55,80.35L118.06,76.73L118.57,62.62L119.09,62.62L119.6,65.1L120.11,62.23L120.62,54.4L121.64,60.42L122.15,58.95L122.66,45.9L123.18,46.45L123.69,49.66L124.2,47.83L124.71,68.15L125.22,60.55L125.73,65.45L126.24,65.45L126.75,81.48L127.26,81.48L127.78,69.4L128.8,-33.87L129.31,0.37L130.33,15.55L130.84,-0.79L131.35,48.76L131.87,28.75L132.38,28.75L133.4,76.82L133.91,69.36L134.42,76.82L135.44,75.74L135.95,75.74L136.47,75.74L136.98,80.97L137.49,80.97L138,78.9L138.51,78.82L139.02,44.94L140.04,44.94L140.55,23.74L141.58,23.74L142.09,65.92L142.6,61.74L143.11,76.1L144.13,77.63L144.64,73.19L145.16,77.63L145.67,71.66L146.18,71.66L146.69,81.26L147.71,63.92L148.22,81.62L149.24,72.16L149.76,46.97L150.78,80.87L151.29,56.18L152.82,82.21L153.33,77.7L153.85,78.27L154.36,73.28L154.87,78.27L155.38,73.28L156.4,59.38L156.91,59.38L157.93,81.19L158.45,80.46L159.98,72.72L160.49,70.71L161,70.71L161.51,80.36L162.02,80.36L162.54,75.35L163.05,76.24L163.56,80.65L164.07,80.65L164.58,72.68L165.6,8.49L166.11,59.42L167.14,64.96L167.65,79.4L168.16,80.35L168.67,79.4L169.18,80.35L169.69,68.9L170.2,76.65L170.71,75.99L171.22,57.38L172.25,60.21L172.76,75.78L173.27,81.5L173.78,74.03L175.31,51.28L175.83,74.84L177.36,81.07L177.87,54.57L178.89,49.18L179.4,9.82L179.91,-10.97L180.43,10.99L180.94,1.96L181.45,25.42L182.47,81.21L182.98,67.98L183.49,81.89L184,80.36L184.52,78.25L185.54,77.28L186.05,78.25L186.56,78.25L187.07,75.46L188.6,63.26L189.12,79.49L190.14,77.47L190.65,77.47L192.18,77.47L192.69,78.96L193.72,71.75L194.23,78.3L194.74,78.3L195.25,70.46L196.27,34.72L196.78,55.05L197.29,52.6L197.81,22.29L198.32,-13.4L198.83,70.65L199.85,66.7L200.36,75.51L200.87,77.58L201.38,-11.53L202.41,67.6L202.92,62.47L203.43,67.6L203.94,67.85L204.45,39.85L204.96,17.59L205.47,44.53L206.5,78.43L207.01,78.25L207.52,71.72L208.03,78.25L208.54,71.72L209.05,72.55L209.56,78.25L210.58,66.58L211.1,50.21L211.61,80.21L212.12,72.15L212.63,81.27L213.14,81.32L213.65,74.34L214.67,74.34L215.18,67.18L215.7,67.18L216.21,54.64L216.72,61.32L217.23,54.64L218.76,73.06L219.27,59.37L220.3,78.39L220.81,79.37L221.83,81.58L222.34,75.86L222.85,65.24L223.36,82.25L223.87,77.65L224.39,64.02L224.9,64.93L225.41,52.38L225.92,52.38L226.43,-4.11L227.96,76.53L228.48,63.74L228.99,76.02L229.5,70.09L230.01,67.71L230.52,74.52L232.05,76.61L232.56,66.28L233.08,68.29L233.59,63.32L234.1,60.45L234.61,70.29L235.63,60.45L236.14,46.17L236.65,78.86L237.17,51.13L237.68,65.03L238.19,59.96L238.7,65.03L239.72,55.81L240.23,55.81L240.74,19.8L241.25,24.66L241.77,19.85L242.79,19.85L243.3,12.58L243.81,12.58L244.32,17.97L246.37,17.97L246.88,49.87L247.9,77.99L248.41,50.94L249.43,27.08L249.94,27.08L250.46,28.6L250.97,61.1L251.99,74.89L252.5,58.38L253.52,59.06L254.03,65.4L254.54,64.28L255.06,61.31L255.57,82.07L256.08,68.88L256.59,64.28L257.1,75.59L258.12,63.96L258.63,75.59L259.15,66.42L259.66,74.89L260.17,67.04L260.68,74.89L262.21,54.92L262.72,60.03L263.23,65.66L263.75,34.78L264.77,-3.63L265.28,5.08L266.81,67.93L267.32,45.98L268.35,28.09L268.86,27L269.37,27L269.88,22.01L270.39,19.72L270.9,22.01L271.41,16.3L271.92,22.01L272.44,14.51L272.95,22.01L273.97,22.01L274.48,48.35L274.99,49.51L275.5,62.8L276.52,44.78L277.04,46.97L277.55,64.34L278.06,51.99L278.57,51.99L279.08,64.8L280.1,44.54L280.61,78.69L281.13,78.69L281.64,73.46L282.15,75.59L282.66,70.84L283.17,50.45L283.68,73.93L285.21,59.59L285.73,67.22L286.75,73.71L287.26,73.71L287.77,79.61L288.28,77.82L288.79,46.9L289.3,78.1L289.81,76.4L290.33,82.17L291.35,59.66L291.86,20.5L293.39,20.5L293.9,26.11L294.93,39.4L295.44,39.4L295.95,39.4L296.46,57.44L296.97,57.48L297.48,51.48L297.99,57.48L298.5,80.09L299.53,80.09L300.04,69.25L301.06,63.62L301.57,48.5L302.08,48.5L302.59,27.46L304.13,47.17L304.64,39.2L305.66,38.94L306.17,51.16L306.68,51.16L307.19,47.86L307.71,25.2L308.22,32.19L308.73,26.6L309.24,32.19L309.75,69.48L310.26,66.09L310.77,73.67L311.28,77.15L311.8,73.67L313.33,42.19L313.84,59.6L314.35,56.46L314.86,80.9L315.88,75.22L316.4,62.94L317.42,77.08L317.93,69.94L318.44,62.94L318.95,74.58L319.97,39.68L320.48,47.02L321,39.68L321.51,67.58L322.02,47.02L322.53,36.89L323.04,61.71L324.06,55.02L324.57,55.02L325.09,55.02L325.6,61.15L326.62,41.02L327.13,55.11L327.64,47.29L328.15,55.11L330.2,55.11L330.71,52.49L331.73,42.45L332.24,19.62L332.75,18.77L333.26,19.62L333.78,34.83L334.29,18.77L335.31,14.04L335.82,14.04L336.33,10.56L336.84,0.66L337.86,0.66L338.38,13.71L339.4,75.5L339.91,69.94L340.42,69.12L340.93,36.53L341.44,36.53L341.95,46.54L342.46,43.81L342.98,59.99L343.49,63.01L344,56.1L344.51,-24.84L345.02,62.17L345.53,71.56L346.04,56.77L346.55,56.77L347.07,72.29L348.09,63.54L348.6,71.35L349.11,64.89L349.62,74.63L350.13,73.25L350.64,74.63L352.18,72.47L352.69,81.88L353.2,80.8L353.71,47.51L354.73,47.51L355.24,50.27L356.27,50.27L356.78,64.84L357.29,63.89L357.8,53.19L358.31,70.34L358.82,66.14L359.33,66.14L359.84,66.14L360.36,52.01L361.38,52.01L361.89,43.65L362.91,-21.91L363.42,2.26L364.45,81.13L364.96,78.04L365.47,75.82L365.98,81.79L366.49,71.76L367,72.11L367.51,66.24L369.05,42.59L369.56,42.59L370.07,21.64L370.58,81.42L371.6,69.36L372.11,81.33L372.62,77.73L373.13,81.33L373.65,76.63L374.16,77.73L374.67,81.33L375.18,81.33L375.69,66.73L377.22,81.49L377.74,81.49L378.76,26.36L379.27,66.73L380.29,44.98L380.8,77.92L382.34,48.96L382.85,57.08L383.36,57.08L383.87,74.83L384.89,72.71L385.4,24.65L385.91,23.09L386.43,24.65L386.94,23.09L387.45,-37.23L387.96,24.71L388.47,12.43L388.98,24.71L389.49,42.04L390,29.89L390.51,25.11L391.03,29.89L392.05,-1L392.56,-1L393.07,-1L393.58,2.34L394.09,2.34L394.6,-32.7L395.11,-48.33L396.65,-30.64L397.16,10.55L397.67,10.55L398.18,5.84L399.2,17.67L399.72,17.67L400.23,17.67L400.74,77.21L401.25,76.88L401.76,64.14L402.27,76.88L402.78,37.44L403.29,37.44L403.8,77.21L404.32,79.43L404.83,75.71L405.34,77.21L405.85,82.19L406.87,45.85L407.38,33.09L407.89,31.72L408.41,45.85L408.92,43.26L409.43,56.18L409.94,77.26L410.45,72.92L410.96,77.26L411.47,77.26L411.98,39.54L412.49,39.54L413.01,44.8L414.03,78.32L414.54,81.72L415.56,81.72L416.07,50.6L416.58,64.76L417.09,61.84L417.61,55.99L418.12,61.84L418.63,76.68L419.14,73.19L419.65,76.68L420.16,79.13L420.67,68.65L421.18,68.65L421.7,56.63L422.21,61.4L422.72,44.58L423.23,44.58L423.74,63.92L424.25,80.24L424.76,67.69L425.27,68.02L425.78,63.92L426.3,68.04L426.81,61.19L427.32,68.04L427.83,67.22L428.34,67.22L428.85,67.22L429.36,78.26L429.87,75.4L430.39,31.98L430.9,31.98L431.41,33.51L431.92,64.16L432.43,46.75L433.45,46.75L433.96,44.27L434.47,44.27L434.99,26.47L436.01,34.29L436.52,26.98L437.03,34.29L437.54,81.63L438.05,76.08L438.56,81.63L439.08,76.08L439.59,81.63L440.1,81.63L440.61,75.13L441.12,75.13L441.63,66.53L442.14,74.84L442.65,66.53L443.16,74.84L443.68,66.53L444.7,79.18L445.21,70.52L445.72,39.94L446.23,73.47L446.74,40.03L447.25,50.8L447.76,48.28L448.28,12.55L448.79,32.26L449.81,79.7L450.32,79.7L450.83,60.23L451.34,70.18L451.85,66.28L452.37,79.98L452.88,79.98L453.39,66.28L453.9,66.28L454.41,74.02L455.43,50.77L455.94,68.19L456.45,68.57L456.97,54.77L457.48,46.37L457.99,56.79L459.01,80.71L459.52,67.85L460.03,67.09L460.54,80.55L461.06,74.71L461.57,76.29L462.08,77.37L462.59,79.66L463.1,74.71L463.61,64.8L464.12,81.85L465.66,73.33L466.17,81.96L467.19,28.31L467.7,52.75L468.72,66.48L469.23,69.43L469.74,51.79L470.26,61.86L470.77,61.86L471.28,73.06L471.79,78.61L472.3,50.5L473.83,73.95L474.35,76.35L476.9,6.09L477.41,6.09L477.92,6.09L478.43,18.21L478.95,18.21L479.46,32.51L479.97,13.89L480.48,14.25L480.99,61.17L481.5,55.41L482.01,62.76L482.52,80.01L483.04,46.41L484.06,72.8L484.57,49.2L485.08,29.11L485.59,39.15L486.1,70.78L486.61,67.36L487.12,76.58L487.64,76.58L488.15,74.56L488.66,74.56L489.17,77.21L489.68,74.51L490.19,78.88L490.7,74.51L491.21,78.88L492.24,79.91L492.75,79.65L493.26,65.39L493.77,79.91L494.79,66.29L495.3,82.23L496.33,69.09L496.84,74.1L497.35,75.44L497.86,69.96L499.39,40.78L499.9,52.48L500.93,35.85L501.44,40.78L502.46,70.46L502.97,58.31L503.99,70.46L504.5,56.75L505.02,59.36L505.53,70.46L506.04,75.88L506.55,66.27L507.06,66.4L507.57,70.96L508.08,66.4L508.59,38.8L509.62,78.46L510.13,70.96L510.64,67.68L511.15,78.92L511.66,78.92L512.17,74.23L512.68,78.92L513.19,73.97L514.22,45.73L514.73,57.98L515.75,60.04L516.26,75.85L517.28,61.53L517.79,68.94L518.31,62.78L518.82,76.45L519.33,50.45L519.84,79.93L520.35,75.5L520.86,63L521.88,77.42L522.39,63L523.42,77.42L523.93,70.44L524.44,77.42L524.95,70.44L525.46,80.8L525.97,78.89" style="vector-effect: non-scaling-stroke; fill: none; stroke: rgb(0, 0, 0); stroke-opacity: 1; stroke-width: 1px; opacity: 1;"/><g class="points"/></g></g></g><g class="overplot"/><path class="xlines-above crisp" d="M53.77034120734907,112.41633858267717H596.0629921259842" style="fill: none; stroke-width: 1px; stroke: rgb(0, 0, 0); stroke-opacity: 1;"/><path class="ylines-above crisp" d="M54.27034120734907,23.543307086614167V111.91633858267717" style="fill: none; stroke-width: 1px; stroke: rgb(0, 0, 0); stroke-opacity: 1;"/><g class="overlines-above"/><g class="xaxislayer-above"><path class="xtick ticks crisp" d="M0,111.91633858267717v-5" transform="translate(69.58034120734906,0)" style="stroke: rgb(0, 0, 0); stroke-opacity: 1; stroke-width: 1px;"/><path class="xtick ticks crisp" d="M0,111.91633858267717v-5" transform="translate(197.37034120734907,0)" style="stroke: rgb(0, 0, 0); stroke-opacity: 1; stroke-width: 1px;"/><path class="xtick ticks crisp" d="M0,111.91633858267717v-5" transform="translate(325.16034120734906,0)" style="stroke: rgb(0, 0, 0); stroke-opacity: 1; stroke-width: 1px;"/><path class="xtick ticks crisp" d="M0,111.91633858267717v-5" transform="translate(452.9503412073491,0)" style="stroke: rgb(0, 0, 0); stroke-opacity: 1; stroke-width: 1px;"/><path class="xtick ticks crisp" d="M0,111.91633858267717v-5" transform="translate(580.740341207349,0)" style="stroke: rgb(0, 0, 0); stroke-opacity: 1; stroke-width: 1px;"/><g class="xtick"><text text-anchor="middle" x="0" y="126.11633858267717" transform="translate(69.58034120734906,0)" style="font-family: sans-serif; font-size: 11px; fill: rgb(0, 0, 0); fill-opacity: 1; white-space: pre;">0</text></g><g class="xtick"><text text-anchor="middle" x="0" y="126.11633858267717" transform="translate(197.37034120734907,0)" style="font-family: sans-serif; font-size: 11px; fill: rgb(0, 0, 0); fill-opacity: 1; white-space: pre;">250</text></g><g class="xtick"><text text-anchor="middle" x="0" y="126.11633858267717" transform="translate(325.16034120734906,0)" style="font-family: sans-serif; font-size: 11px; fill: rgb(0, 0, 0); fill-opacity: 1; white-space: pre;">500</text></g><g class="xtick"><text text-anchor="middle" x="0" y="126.11633858267717" transform="translate(452.9503412073491,0)" style="font-family: sans-serif; font-size: 11px; fill: rgb(0, 0, 0); fill-opacity: 1; white-space: pre;">750</text></g><g class="xtick"><text text-anchor="middle" x="0" y="126.11633858267717" transform="translate(580.740341207349,0)" style="font-family: sans-serif; font-size: 11px; fill: rgb(0, 0, 0); fill-opacity: 1; white-space: pre;">1000</text></g></g><g class="yaxislayer-above"><path class="ytick ticks crisp" d="M54.77034120734907,0h5" transform="translate(0,105.85330708661417)" style="stroke: rgb(0, 0, 0); stroke-opacity: 1; stroke-width: 1px;"/><path class="ytick ticks crisp" d="M54.77034120734907,0h5" transform="translate(0,91.77330708661417)" style="stroke: rgb(0, 0, 0); stroke-opacity: 1; stroke-width: 1px;"/><path class="ytick ticks crisp" d="M54.77034120734907,0h5" transform="translate(0,77.69330708661417)" style="stroke: rgb(0, 0, 0); stroke-opacity: 1; stroke-width: 1px;"/><path class="ytick ticks crisp" d="M54.77034120734907,0h5" transform="translate(0,63.61330708661417)" style="stroke: rgb(0, 0, 0); stroke-opacity: 1; stroke-width: 1px;"/><path class="ytick ticks crisp" d="M54.77034120734907,0h5" transform="translate(0,49.533307086614165)" style="stroke: rgb(0, 0, 0); stroke-opacity: 1; stroke-width: 1px;"/><path class="ytick ticks crisp" d="M54.77034120734907,0h5" transform="translate(0,35.45330708661417)" style="stroke: rgb(0, 0, 0); stroke-opacity: 1; stroke-width: 1px;"/><g class="ytick"><text text-anchor="end" x="51.57034120734907" y="3.8499999999999996" transform="translate(0,105.85330708661417)" style="font-family: sans-serif; font-size: 11px; fill: rgb(0, 0, 0); fill-opacity: 1; white-space: pre;">0.00</text></g><g class="ytick"><text text-anchor="end" x="51.57034120734907" y="3.8499999999999996" transform="translate(0,91.77330708661417)" style="font-family: sans-serif; font-size: 11px; fill: rgb(0, 0, 0); fill-opacity: 1; white-space: pre;">0.05</text></g><g class="ytick"><text text-anchor="end" x="51.57034120734907" y="3.8499999999999996" transform="translate(0,77.69330708661417)" style="font-family: sans-serif; font-size: 11px; fill: rgb(0, 0, 0); fill-opacity: 1; white-space: pre;">0.10</text></g><g class="ytick"><text text-anchor="end" x="51.57034120734907" y="3.8499999999999996" transform="translate(0,63.61330708661417)" style="font-family: sans-serif; font-size: 11px; fill: rgb(0, 0, 0); fill-opacity: 1; white-space: pre;">0.15</text></g><g class="ytick"><text text-anchor="end" x="51.57034120734907" y="3.8499999999999996" transform="translate(0,49.533307086614165)" style="font-family: sans-serif; font-size: 11px; fill: rgb(0, 0, 0); fill-opacity: 1; white-space: pre;">0.20</text></g><g class="ytick"><text text-anchor="end" x="51.57034120734907" y="3.8499999999999996" transform="translate(0,35.45330708661417)" style="font-family: sans-serif; font-size: 11px; fill: rgb(0, 0, 0); fill-opacity: 1; white-space: pre;">0.25</text></g></g><g class="overaxes-above"/></g><g class="subplot x2y2"><g class="layer-subplot"><g class="shapelayer"/><g class="imagelayer"/></g><g class="gridlayer"><g class="x2"><path class="x2grid crisp" d="M0,160.2529527559055v206.2037401574803" transform="translate(61.65034120734907,0)" style="stroke: rgb(0, 0, 0); stroke-opacity: 0.1; stroke-width: 0.5px;"/><path class="x2grid crisp" d="M0,160.2529527559055v206.2037401574803" transform="translate(119.39034120734908,0)" style="stroke: rgb(0, 0, 0); stroke-opacity: 0.1; stroke-width: 0.5px;"/><path class="x2grid crisp" d="M0,160.2529527559055v206.2037401574803" transform="translate(177.13034120734906,0)" style="stroke: rgb(0, 0, 0); stroke-opacity: 0.1; stroke-width: 0.5px;"/><path class="x2grid crisp" d="M0,160.2529527559055v206.2037401574803" transform="translate(234.87034120734907,0)" style="stroke: rgb(0, 0, 0); stroke-opacity: 0.1; stroke-width: 0.5px;"/><path class="x2grid crisp" d="M0,160.2529527559055v206.2037401574803" transform="translate(292.60034120734906,0)" style="stroke: rgb(0, 0, 0); stroke-opacity: 0.1; stroke-width: 0.5px;"/></g><g class="y2"><path class="y2grid crisp" d="M54.77034120734907,0h253.3759842519685" transform="translate(0,322.1629527559055)" style="stroke: rgb(0, 0, 0); stroke-opacity: 0.1; stroke-width: 0.5px;"/><path class="y2grid crisp" d="M54.77034120734907,0h253.3759842519685" transform="translate(0,276.26295275590553)" style="stroke: rgb(0, 0, 0); stroke-opacity: 0.1; stroke-width: 0.5px;"/><path class="y2grid crisp" d="M54.77034120734907,0h253.3759842519685" transform="translate(0,230.3529527559055)" style="stroke: rgb(0, 0, 0); stroke-opacity: 0.1; stroke-width: 0.5px;"/><path class="y2grid crisp" d="M54.77034120734907,0h253.3759842519685" transform="translate(0,184.4529527559055)" style="stroke: rgb(0, 0, 0); stroke-opacity: 0.1; stroke-width: 0.5px;"/></g></g><g class="zerolinelayer"/><path class="xlines-below"/><path class="ylines-below"/><g class="overlines-below"/><g class="xaxislayer-below"/><g class="yaxislayer-below"/><g class="overaxes-below"/><g class="plot" transform="translate(54.77034120734907, 160.2529527559055)" clip-path="url(#clip03fcefx2y2plot)"><g class="scatterlayer mlayer"><g class="trace scatter trace84fb71" style="stroke-miterlimit: 2; opacity: 1;"><path class="js-line" d="M7.17,5.84L7.46,5.84L7.75,10.28L8.9,128.95L9.19,45.56L10.06,107.87L10.35,61.4L10.92,121.72L11.5,117.69L11.79,111.3L12.08,124.33L12.37,105.36L12.66,110.73L13.23,200.37L13.52,169.88L13.81,159.32L14.1,158.32L14.39,150.48L14.68,141.81L14.97,99.08L15.25,106.76L15.54,106.13L15.83,89L16.41,88.97L16.7,111.33L16.99,88.97L17.28,137.61L17.56,149.15L17.85,88.97L18.43,125.11L18.72,102.75L19.01,83.52L19.3,102.75L19.58,115.38L20.16,139.28L20.45,128.43L20.74,109.96L21.32,125.79L21.61,97.88L22.18,85.71L22.47,151.58L22.76,118.93L23.05,154.69L23.34,95.56L23.63,154.69L24.2,133.47L24.49,146.02L25.65,111.63L25.94,120.57L26.22,71.99L26.51,122.51L26.8,101.1L27.09,134.34L27.38,99.12L27.67,139.86L27.96,134.34L29.69,66.05L29.98,74.36L30.27,68.64L31.13,84.33L31.42,121.3L32,102.98L32.29,115.7L32.58,80.24L33.15,81.16L33.44,85.9L33.73,77.46L34.02,118.39L34.31,130.72L34.6,91.4L35.17,84.77L35.46,132.66L35.75,84.77L36.04,116.39L36.33,115.61L36.62,91.18L36.91,86.04L37.19,130.99L38.06,100.62L38.35,126.68L38.64,138.29L38.93,92.96L39.22,124.82L39.5,92.96L39.79,95.43L40.66,123.59L40.95,108.52L41.52,150.03L41.81,141.73L42.1,103.25L42.97,108.94L43.26,87.57L44.12,111.88L44.41,100.31L44.99,115.5L45.28,113.6L45.57,96.51L46.43,132.95L46.72,107.33L48.74,176.31L49.03,92.07L49.32,139.67L49.9,112.51L50.19,74.44L51.05,111.58L51.34,100.7L51.63,111.58L51.92,100.7L52.21,150.27L53.36,98.3L53.65,111.58L53.94,98.3L54.23,135.95L55.09,79.5L55.38,148.63L55.67,84.62L55.96,148.63L56.25,159.96L56.54,162.61L56.83,93.4L57.11,154.94L57.69,128.71L57.98,130.05L58.27,130.05L58.56,109.89L58.85,109.89L59.13,115.78L60.29,155.32L60.58,156.16L60.87,123.25L61.16,147.59L61.44,157.93L62.6,116.79L62.89,109.32L63.18,109.15L63.47,128.85L64.04,56.75L64.33,143.36L64.62,94.45L65.2,106.07L65.49,106.07L65.77,93.47L66.06,106.07L66.35,133.59L66.64,133.59L66.93,108.47L67.51,83.12L67.8,111.96L68.66,88.48L68.95,126.98L69.53,102.99L69.82,124.68L70.11,88.82L70.68,104.61L70.97,112.15L71.84,96.46L72.13,109.62L73.86,139.48L74.15,106.1L74.44,106.52L74.72,97.55L75.01,112.18L75.3,100.16L75.59,60.88L76.17,143.29L76.46,138.48L76.74,119.31L77.61,126.22L77.9,118.36L78.19,128.17L78.48,109.32L79.34,135.78L79.63,122.47L80.5,154.6L80.79,127.44L81.08,133.66L81.36,117.68L81.65,121.99L81.94,120.27L82.23,99.85L82.81,49.64L83.1,73.02L83.38,63.36L84.25,114.01L84.54,96.93L85.41,130.9L85.69,103.55L85.98,103.55L86.27,130.9L86.56,130.9L86.85,97.57L87.72,149.92L88,105.77L88.29,106.89L88.58,122.58L88.87,140.41L89.16,130.86L89.45,119.45L89.74,80.37L90.31,81.04L90.6,107.44L91.18,161.16L91.47,109.35L91.76,96.06L92.05,144.98L92.91,104.14L93.2,112.81L93.49,134.41L93.78,147.28L94.07,134.41L94.35,137.62L95.51,97.9L95.8,101.93L96.95,100.75L97.24,94.57L97.53,101.5L97.82,94.57L98.11,134.56L98.4,145.13L98.69,126.67L98.97,140.71L99.26,115.6L99.55,115.03L99.84,137.19L100.42,137.19L100.71,133.79L100.99,139.57L101.28,98.53L101.57,139.57L102.15,127.1L102.44,127.63L102.73,151.97L103.02,127.63L103.3,111.17L103.59,126.35L103.88,119.06L104.17,97.49L104.46,84.31L104.75,117.52L105.04,131.62L105.33,86.49L106.19,186.26L106.48,160.51L107.63,118.78L107.92,121.99L108.5,94.67L108.79,105.11L109.08,120.42L109.37,112.97L109.66,113.18L109.94,142.99L110.23,86.34L110.81,92.08L111.1,86.34L111.39,69.93L111.68,119.76L111.96,72.9L112.25,86.3L112.54,152.79L113.41,63.68L113.7,80.69L114.85,151.25L115.14,129.09L115.43,138.58L115.72,125.02L116.01,112.42L116.3,80.26L116.58,137.28L116.87,130.06L117.16,145.39L118.03,87.37L118.32,115.61L118.89,126.01L119.18,87.37L119.76,119.63L120.05,114.23L120.34,97.13L120.63,135.84L120.91,98.06L121.2,103.41L122.07,89.89L122.36,90.79L122.65,94.47L123.8,164.45L124.09,146.16L124.38,146.03L124.67,132.55L125.24,159.99L125.53,156.71L125.82,141.82L126.11,175.8L126.4,111.42L126.98,100.77L127.27,175.8L127.55,147.77L127.84,175.8L128.13,156.65L128.42,148.06L128.71,82.54L129,148.06L129.29,134.61L129.57,125.54L129.86,141.53L130.73,156.8L131.02,130.18L131.31,130.18L131.6,110.03L132.17,135.03L132.46,74.65L133.62,116.81L133.91,121.69L135.06,76.22L135.35,131.57L135.64,103.03L135.93,116.61L136.21,139.45L136.79,55.63L137.08,57.75L137.37,73.89L137.66,149.37L138.24,132.34L138.52,102.85L140.26,160.82L140.55,160.46L140.83,93.65L141.99,154.81L142.28,56.98L143.14,139.91L143.43,102.96L143.72,94.98L144.01,128.55L144.3,117.18L144.59,128.55L144.88,79.37L145.16,150.6L145.45,77.69L145.74,79.37L146.03,153.75L146.61,129.74L146.9,103.63L147.18,82L147.47,108.4L147.76,126.1L148.34,82L148.63,118.71L148.92,136.4L149.21,103.63L149.49,147.41L150.07,144.23L150.36,147.41L150.65,144.51L150.94,80.69L151.52,98.13L151.8,86.64L152.09,84.64L152.38,75.52L152.67,73.63L152.96,75.52L153.25,75.52L153.82,144.18L154.11,67.01L154.69,58.73L154.98,100.17L155.27,87.44L155.56,58.73L155.85,112.02L156.13,128.09L156.42,79.47L156.71,76.35L157,141.97L157.87,130.68L158.16,154.45L158.73,160.78L159.02,80.93L159.31,142.97L159.6,97.19L159.89,68.19L160.18,126.15L160.46,101.19L160.75,87.17L161.62,128.32L161.91,126.64L162.49,99.27L162.77,118.35L163.06,99.27L163.35,118.35L163.64,118.35L164.79,71.28L165.08,79.73L165.37,141.96L165.66,131.74L165.95,79.94L167.39,144.21L167.68,142.3L167.97,132.22L168.26,74.44L168.84,100.1L169.13,127.93L169.7,131.09L170.28,97.7L170.57,130.78L171.15,73.82L171.43,120.64L171.72,121.16L172.01,90.76L173.17,121.14L173.46,106.23L174.32,124.88L174.61,135.51L174.9,113.34L175.19,133.25L175.48,160.39L176.34,81.15L176.63,123.51L177.5,81.69L177.79,136.44L178.94,69.98L179.23,116.56L180.38,91.26L180.67,89.66L180.96,89.17L181.25,57.79L181.54,89.17L182.12,83.09L182.4,61.97L182.69,33.12L183.27,36.03L183.56,55.59L183.85,51.57L184.14,54.27L184.43,131.3L185.58,72.66L185.87,131.3L186.16,128.41L186.45,129.6L186.74,131.3L187.6,66.64L187.89,69.72L188.18,78.61L188.47,73.16L188.76,79.14L189.04,124.68L189.33,106.05L189.62,124.68L189.91,154.32L190.78,108.35L191.07,115.21L191.35,87.56L191.64,138.96L192.51,102.58L192.8,109.82L193.09,98.45L193.37,109.82L193.66,127.84L194.24,88.58L194.53,94.05L194.82,118L195.11,82.92L195.4,113.22L195.68,114.51L195.97,96.82L196.26,112.5L196.55,113.22L197.42,145.34L197.71,142.82L198.57,62.15L198.86,62.39L199.15,145.93L200.01,73.04L200.3,115.11L200.88,58.62L201.17,88.88L201.46,109.75L202.32,98.91L202.61,109.75L203.19,87.37L203.48,123.98L204.35,87.37L204.63,91.65L204.92,111.94L205.21,91.65L205.5,166.02L206.08,71.87L206.37,85L206.65,91.67L207.23,153.82L207.52,103.65L208.1,91.77L208.39,91.96L208.68,121.82L209.25,91.96L209.54,136.69L209.83,144.67L210.12,123.37L210.98,74.86L211.27,103.64L211.56,114.79L211.85,106.33L212.14,92.15L212.43,86.51L212.72,126.28L213.01,125.09L213.29,101L214.45,129.27L214.74,110.77L215.6,139.06L215.89,111.46L216.47,172.52L216.76,113.92L217.34,144.98L217.62,119.39L217.91,100.75L218.49,105.43L218.78,109.5L219.07,151.87L219.36,81.75L219.93,120.91L220.22,80.64L220.51,94.7L220.8,159.48L221.67,168.74L221.96,162.8L222.24,178.99L222.53,176.38L222.82,145.31L223.11,77.93L223.69,113.39L223.98,76.32L224.84,152.87L225.13,91.46L225.42,166.79L226,129.33L226.29,119.22L227.15,101.05L227.44,101.4L227.73,101.05L228.02,101.4L228.31,120.08L228.59,126.13L228.88,120.08L229.17,110.38L229.46,126.13L230.04,119.88L230.33,114.05L230.62,135.35L230.9,96.79L232.35,159.61L232.64,95.34L233.21,162.41L233.5,159.61L233.79,93.92L234.08,108.28L234.37,78.33L235.23,154.38L235.52,79.55L236.1,109.48L236.39,85.01L236.97,116.01L237.26,106.55L237.54,78.07L238.12,122.86L238.41,116.01L238.7,96.76L239.28,133.21L239.57,124.34L239.85,101.9L240.14,90.18L240.43,105.8L240.72,131.17L241.01,81.68L241.59,97.94L241.87,97.94L242.45,83.12L242.74,110.05L243.03,74.58L243.32,118.91L243.61,97.04L244.76,100.4L245.05,133.38L245.34,100.4L245.92,110.29L246.2,116.35" style="vector-effect: non-scaling-stroke; fill: none; stroke: rgb(0, 0, 0); stroke-opacity: 1; stroke-width: 1px; opacity: 1;"/><g class="points"/></g></g></g><g class="overplot"/><path class="xlines-above crisp" d="M53.77034120734907,366.95669291338584H308.14632545931755" style="fill: none; stroke-width: 1px; stroke: rgb(0, 0, 0); stroke-opacity: 1;"/><path class="ylines-above crisp" d="M54.27034120734907,160.2529527559055V366.45669291338584" style="fill: none; stroke-width: 1px; stroke: rgb(0, 0, 0); stroke-opacity: 1;"/><g class="overlines-above"/><g class="xaxislayer-above"><path class="x2tick ticks crisp" d="M0,366.45669291338584v-5" transform="translate(61.65034120734907,0)" style="stroke: rgb(0, 0, 0); stroke-opacity: 1; stroke-width: 1px;"/><path class="x2tick ticks crisp" d="M0,366.45669291338584v-5" transform="translate(119.39034120734908,0)" style="stroke: rgb(0, 0, 0); stroke-opacity: 1; stroke-width: 1px;"/><path class="x2tick ticks crisp" d="M0,366.45669291338584v-5" transform="translate(177.13034120734906,0)" style="stroke: rgb(0, 0, 0); stroke-opacity: 1; stroke-width: 1px;"/><path class="x2tick ticks crisp" d="M0,366.45669291338584v-5" transform="translate(234.87034120734907,0)" style="stroke: rgb(0, 0, 0); stroke-opacity: 1; stroke-width: 1px;"/><path class="x2tick ticks crisp" d="M0,366.45669291338584v-5" transform="translate(292.60034120734906,0)" style="stroke: rgb(0, 0, 0); stroke-opacity: 1; stroke-width: 1px;"/><g class="x2tick"><text text-anchor="middle" x="0" y="380.6566929133858" transform="translate(61.65034120734907,0)" style="font-family: sans-serif; font-size: 11px; fill: rgb(0, 0, 0); fill-opacity: 1; white-space: pre;">0</text></g><g class="x2tick"><text text-anchor="middle" x="0" y="380.6566929133858" transform="translate(119.39034120734908,0)" style="font-family: sans-serif; font-size: 11px; fill: rgb(0, 0, 0); fill-opacity: 1; white-space: pre;">200</text></g><g class="x2tick"><text text-anchor="middle" x="0" y="380.6566929133858" transform="translate(177.13034120734906,0)" style="font-family: sans-serif; font-size: 11px; fill: rgb(0, 0, 0); fill-opacity: 1; white-space: pre;">400</text></g><g class="x2tick"><text text-anchor="middle" x="0" y="380.6566929133858" transform="translate(234.87034120734907,0)" style="font-family: sans-serif; font-size: 11px; fill: rgb(0, 0, 0); fill-opacity: 1; white-space: pre;">600</text></g><g class="x2tick"><text text-anchor="middle" x="0" y="380.6566929133858" transform="translate(292.60034120734906,0)" style="font-family: sans-serif; font-size: 11px; fill: rgb(0, 0, 0); fill-opacity: 1; white-space: pre;">800</text></g></g><g class="yaxislayer-above"><path class="y2tick ticks crisp" d="M54.77034120734907,0h5" transform="translate(0,322.1629527559055)" style="stroke: rgb(0, 0, 0); stroke-opacity: 1; stroke-width: 1px;"/><path class="y2tick ticks crisp" d="M54.77034120734907,0h5" transform="translate(0,276.26295275590553)" style="stroke: rgb(0, 0, 0); stroke-opacity: 1; stroke-width: 1px;"/><path class="y2tick ticks crisp" d="M54.77034120734907,0h5" transform="translate(0,230.3529527559055)" style="stroke: rgb(0, 0, 0); stroke-opacity: 1; stroke-width: 1px;"/><path class="y2tick ticks crisp" d="M54.77034120734907,0h5" transform="translate(0,184.4529527559055)" style="stroke: rgb(0, 0, 0); stroke-opacity: 1; stroke-width: 1px;"/><g class="y2tick"><text text-anchor="end" x="51.57034120734907" y="3.8499999999999996" transform="translate(0,322.1629527559055)" style="font-family: sans-serif; font-size: 11px; fill: rgb(0, 0, 0); fill-opacity: 1; white-space: pre;">-1.5</text></g><g class="y2tick"><text text-anchor="end" x="51.57034120734907" y="3.8499999999999996" transform="translate(0,276.26295275590553)" style="font-family: sans-serif; font-size: 11px; fill: rgb(0, 0, 0); fill-opacity: 1; white-space: pre;">-1.0</text></g><g class="y2tick"><text text-anchor="end" x="51.57034120734907" y="3.8499999999999996" transform="translate(0,230.3529527559055)" style="font-family: sans-serif; font-size: 11px; fill: rgb(0, 0, 0); fill-opacity: 1; white-space: pre;">-0.5</text></g><g class="y2tick"><text text-anchor="end" x="51.57034120734907" y="3.8499999999999996" transform="translate(0,184.4529527559055)" style="font-family: sans-serif; font-size: 11px; fill: rgb(0, 0, 0); fill-opacity: 1; white-space: pre;">0.0</text></g></g><g class="overaxes-above"/></g><g class="subplot x3y3"><g class="layer-subplot"><g class="shapelayer"/><g class="imagelayer"/></g><g class="gridlayer"><g class="x3"><path class="x3grid crisp" d="M0,160.2529527559055v206.2037401574803" transform="translate(349.5670078740157,0)" style="stroke: rgb(0, 0, 0); stroke-opacity: 0.1; stroke-width: 0.5px;"/><path class="x3grid crisp" d="M0,160.2529527559055v206.2037401574803" transform="translate(407.3070078740157,0)" style="stroke: rgb(0, 0, 0); stroke-opacity: 0.1; stroke-width: 0.5px;"/><path class="x3grid crisp" d="M0,160.2529527559055v206.2037401574803" transform="translate(465.0470078740157,0)" style="stroke: rgb(0, 0, 0); stroke-opacity: 0.1; stroke-width: 0.5px;"/><path class="x3grid crisp" d="M0,160.2529527559055v206.2037401574803" transform="translate(522.7870078740157,0)" style="stroke: rgb(0, 0, 0); stroke-opacity: 0.1; stroke-width: 0.5px;"/><path class="x3grid crisp" d="M0,160.2529527559055v206.2037401574803" transform="translate(580.5170078740157,0)" style="stroke: rgb(0, 0, 0); stroke-opacity: 0.1; stroke-width: 0.5px;"/></g><g class="y3"><path class="y3grid crisp" d="M342.6870078740157,0h253.3759842519685" transform="translate(0,342.1829527559055)" style="stroke: rgb(0, 0, 0); stroke-opacity: 0.1; stroke-width: 0.5px;"/><path class="y3grid crisp" d="M342.6870078740157,0h253.3759842519685" transform="translate(0,296.1029527559055)" style="stroke: rgb(0, 0, 0); stroke-opacity: 0.1; stroke-width: 0.5px;"/><path class="y3grid crisp" d="M342.6870078740157,0h253.3759842519685" transform="translate(0,250.01295275590553)" style="stroke: rgb(0, 0, 0); stroke-opacity: 0.1; stroke-width: 0.5px;"/><path class="y3grid crisp" d="M342.6870078740157,0h253.3759842519685" transform="translate(0,203.93295275590552)" style="stroke: rgb(0, 0, 0); stroke-opacity: 0.1; stroke-width: 0.5px;"/></g></g><g class="zerolinelayer"/><path class="xlines-below"/><path class="ylines-below"/><g class="overlines-below"/><g class="xaxislayer-below"/><g class="yaxislayer-below"/><g class="overaxes-below"/><g class="plot" transform="translate(342.6870078740157, 160.2529527559055)" clip-path="url(#clip03fcefx3y3plot)"><g class="scatterlayer mlayer"><g class="trace scatter traced08142" style="stroke-miterlimit: 2; opacity: 1;"><path class="js-line" d="M7.17,200.37L7.46,200.37L7.75,173.9L8.04,193.49L8.33,189.93L8.61,179.47L8.9,189.93L9.19,126.97L9.77,183.56L10.06,179.39L10.35,158.03L11.5,105.94L11.79,73.89L12.94,122.8L13.23,97.04L14.39,156.88L14.68,126.64L14.97,58.61L15.25,109.65L15.54,119.99L16.12,105.62L16.41,112.81L16.7,113.82L16.99,112.81L17.28,94.25L17.56,94.2L17.85,112.81L18.43,110.75L18.72,117.87L19.01,83.08L19.58,99.29L19.87,75.94L20.16,107.1L20.74,99.53L21.03,85.83L21.89,122.61L22.18,90.37L22.76,139.75L23.05,75.28L23.91,135.29L24.2,78.43L24.78,108.94L25.07,103.38L25.36,82.38L25.94,124.91L26.22,85.69L26.51,52.76L26.8,71.11L27.09,93.85L27.38,82.76L27.67,85.91L27.96,93.85L28.25,97.25L28.53,111.44L28.82,107.72L29.11,119.49L29.4,73.43L29.98,95.85L30.27,88.01L30.55,95.85L30.84,81.89L31.13,106.01L31.42,54.93L32,56.58L32.29,64.63L33.15,112.77L33.44,91.44L33.73,84.9L34.02,126.97L34.6,76.07L34.89,108.71L35.46,117.71L35.75,74.22L36.04,80.9L36.62,121.49L36.91,104.15L37.19,121.91L37.48,70.28L38.06,75.9L38.35,66.94L38.64,64.98L38.93,83.79L40.37,132.08L40.66,48.33L40.95,132.08L41.24,89.33L41.52,70.44L41.81,105.71L42.1,100.78L42.39,72.51L42.97,72.51L43.26,63L43.55,73.84L43.83,112.81L44.7,53.96L44.99,96.66L45.28,53.96L45.57,119.17L45.86,96.66L46.14,71.13L46.72,71.69L47.01,87.8L47.88,88.41L48.16,64.83L48.45,49.54L48.74,65.39L49.03,58.02L49.32,108.36L49.61,58.02L50.19,78.31L50.47,99.38L50.76,106.22L51.05,99.38L51.34,82.92L52.78,130.69L53.07,101.63L53.94,94.87L54.23,61.5L54.8,63.13L55.09,71.1L56.25,72.8L56.54,93.76L56.83,51.19L57.11,112.98L57.4,92.52L57.69,55.88L57.98,118.46L58.27,118.46L58.56,92.72L58.85,92.72L59.13,62.05L59.71,5.84L60,28.59L60.29,40.06L60.58,31.98L60.87,45.63L61.16,42.42L61.44,80.62L61.73,82.13L62.02,88.71L62.6,70.17L62.89,83.82L63.18,76.99L63.75,79.53L64.04,90.9L64.33,73.52L64.62,117.24L65.49,76.42L65.77,82.78L66.06,76.42L66.35,107.83L66.64,107.83L66.93,91.63L67.22,84.88L67.51,87.53L67.8,95.2L68.37,84.79L68.66,126.89L68.95,125.24L69.24,98.62L69.53,51.94L69.82,118.81L70.11,109.88L70.97,74.54L71.26,102.26L72.13,52.7L72.41,81.6L73.28,102.55L73.57,106.24L74.15,92.5L74.44,107.82L75.88,31.93L76.17,64.36L76.46,66.08L76.74,102.19L77.61,92.73L77.9,117.76L78.77,52.01L79.05,56.91L79.34,91.87L80.21,63.42L80.5,70.15L80.79,71.49L82.23,131.27L82.52,110.18L83.1,138.65L83.67,131.41L83.96,67.12L84.54,112.07L84.83,94.46L85.12,79.84L85.41,90.11L85.69,78.11L85.98,78.11L86.85,97.47L87.14,63.95L87.43,105.63L88,97.58L88.29,104.01L88.58,102.4L88.87,85.1L89.16,84.47L89.45,115.84L89.74,118.75L90.02,134.55L90.31,109.54L90.6,131.77L90.89,142.95L91.18,151.03L91.47,115.71L92.05,100.57L92.33,107.27L92.62,75.18L92.91,15.35L93.2,32.71L93.49,113.02L93.78,75.62L94.07,113.02L94.35,110.55L94.93,28.27L95.22,44.76L95.51,65.07L95.8,96.32L96.09,95.48L96.38,69.07L97.24,101L97.53,95.48L97.82,101L98.11,65.61L98.4,122.09L98.97,88.43L99.26,97.4L99.55,82.09L100.13,85.26L100.42,85.26L100.99,122.87L101.28,120.3L101.57,122.87L102.15,122.83L102.44,110.67L103.59,80.59L103.88,84.01L104.17,96.2L104.46,91.87L104.75,88.59L105.33,75.6L105.61,110.47L105.9,80.93L106.19,106.93L106.48,106.06L107.63,70.49L107.92,116.28L108.21,60.35L108.79,72.21L109.08,107.42L109.37,120.15L109.66,61.05L110.52,87.04L110.81,108.6L111.1,69.01L111.68,75.55L111.96,91.01L113.99,28.74L114.27,26.08L114.56,29.83L114.85,63.14L115.14,80.17L115.43,52.49L115.72,32.21L116.01,33.22L116.3,88.96L116.58,74.84L116.87,104.54L117.45,124.62L117.74,62.55L118.03,72.84L118.32,54.2L118.6,88.48L118.89,63.44L119.18,72.84L119.47,84.26L120.05,56.45L120.34,84.26L121.2,61.86L121.49,78.72L121.78,101.94L122.07,69.65L122.36,58.04L122.65,59.92L122.94,71.62L123.8,37.19L124.09,29.24L124.96,73.6L125.24,57.51L125.82,37.67L126.11,87L126.4,28.27L126.98,29.03L127.27,87L127.55,34.32L127.84,87L128.13,69.26L128.42,58.57L128.71,85.06L129.29,46.19L129.57,135.36L130.15,66.95L130.44,91.39L130.73,113.52L131.6,67.27L131.88,103.96L132.17,72.58L132.46,105.55L132.75,98.55L133.04,80.53L133.33,117.77L133.62,126.63L133.91,119.53L134.19,112.39L135.06,65.53L135.35,93.05L135.64,76.08L135.93,86.83L136.21,102.39L136.5,113.34L136.79,96.44L137.08,90.33L137.95,53.37L138.24,50.04L138.52,53.37L138.81,77.99L139.1,116.84L139.68,113.66L139.97,122.21L140.55,119.89L140.83,129.98L141.12,140.31L141.41,129.36L141.7,131.31L141.99,67.09L142.28,89.41L142.57,40.05L142.85,147.84L143.14,40.05L143.43,65.08L143.72,112.8L144.3,107.63L144.59,70.55L145.45,119.87L145.74,87.29L146.03,79.46L146.32,96.31L146.61,96.18L146.9,72.84L147.18,88.94L147.47,71.84L147.76,75.03L148.92,122.87L149.21,139.02L150.07,80.92L150.36,122.77L150.65,45.93L151.23,62.33L151.52,120.55L151.8,62.33L152.09,128.61L152.38,92.57L152.67,107.4L153.25,92.57L153.54,131.78L153.82,126.28L154.11,87.16L154.69,65.94L154.98,149.43L155.27,134.48L155.56,65.94L155.85,153.9L156.13,154.67L156.71,140.42L157,73.99L157.29,90.32L157.58,70.96L157.87,66.03L158.16,54.29L158.44,74.33L158.73,72.74L159.02,77.89L159.31,69.01L159.6,124.76L159.89,154.76L160.18,56.46L160.75,116.21L161.04,65.14L161.33,117.28L161.62,58.16L161.91,66.19L162.2,57.55L162.49,103.3L163.35,66.88L163.64,66.88L165.66,119.16L165.95,112.07L166.24,71.37L166.53,98.46L166.82,130.09L167.1,136.26L167.39,37.82L167.68,14.29L167.97,22.34L168.26,74.2L169.13,105.03L169.41,84.66L169.7,109.79L169.99,65.02L170.28,64.49L170.57,51.23L170.86,42.7L171.15,46.17L171.43,95.37L171.72,72.82L172.01,79.53L172.3,95.23L173.17,107.55L173.46,103.26L174.03,95.23L174.32,119.45L174.61,92.26L174.9,96.47L175.19,136.61L175.77,119.45L176.05,133.86L176.63,104.06L176.92,112.28L177.21,52.4L177.5,107.46L178.07,75.85L178.36,54.16L179.52,6.49L179.81,35.91L180.1,25.67L180.38,35.91L180.67,131.62L181.54,40.14L181.83,27.73L182.12,29.91L182.4,26.52L182.69,60.31L182.98,53.15L183.27,70.28L183.56,115.31L183.85,112.46L184.14,86.29L185,70.76L185.29,82.54L185.58,118.54L185.87,81.63L186.16,85.49L186.45,75.27L186.74,81.63L187.02,89.17L187.31,116.86L187.6,66.08L187.89,58.89L188.18,116.86L188.47,67.63L188.76,104.57L189.04,104.86L189.33,68.36L189.62,104.86L189.91,122.54L190.2,136.49L190.49,72.48L191.35,122.9L191.64,66.59L192.22,53.41L192.51,122.28L192.8,107.36L193.09,104.63L193.37,107.36L193.66,97.11L194.24,81.28L194.53,122.1L194.82,124.88L195.11,124.4L195.4,122.93L195.97,66.07L196.26,118.66L196.55,122.93L196.84,88.62L197.13,63.28L197.71,76.69L197.99,105.71L198.28,101.89L198.57,77.85L198.86,82.38L199.15,74.92L200.3,34.86L200.59,43.02L201.46,87.68L201.75,96.88L202.9,76.68L203.19,99.37L204.06,69.43L204.35,99.37L204.63,99.28L204.92,102.83L205.21,99.28L205.5,81.05L205.79,71.6L206.08,114.51L206.94,26.77L207.23,49.05L208.1,100.96L208.39,70.56L208.68,100.12L208.96,70.56L209.25,70.56L209.54,98.44L209.83,56.63L210.12,61.54L210.41,63.99L210.7,104.39L211.27,127.07L211.56,66.29L211.85,88.66L212.43,82.53L212.72,93.64L213.01,108.87L213.29,78.2L213.58,74.35L213.87,88.15L214.45,119.48L214.74,88.27L215.03,101.79L215.32,94.47L215.6,87.21L216.18,100.06L216.47,87.51L216.76,131.97L217.05,57.7L217.34,79.87L217.62,61.39L217.91,50.1L218.2,124.83L218.78,102.82L219.07,114.67L219.93,71.29L220.22,106.64L220.51,65.28L220.8,113.17L221.09,132.11L221.38,134.14L221.67,122.26L221.96,118.61L222.24,102.27L222.82,68.73L223.11,103.3L223.4,98.79L223.69,78.63L224.26,58.85L224.55,65.89L224.84,64.8L225.13,140.79L225.42,85.78L225.71,63.99L226,63.28L226.29,71.48L226.57,69.21L226.86,72.1L227.15,74.9L228.31,101.32L228.59,97.01L228.88,101.32L229.17,121.4L229.46,97.01L229.75,118.7L230.04,120.69L230.33,89.75L230.62,108.74L230.9,110.28L231.19,111.33L231.48,98.28L231.77,108.74L232.06,76.96L232.35,114.88L232.64,52.71L233.5,114.88L233.79,70.11L234.08,64.18L234.37,86.91L234.95,64.18L235.23,82.87L235.52,95.81L235.81,64.18L236.39,89.59L236.68,119.03L236.97,63.62L237.26,119.03L237.54,123.39L238.41,63.62L238.7,67.76L239.57,77.85L239.85,72.69L240.14,116.57L240.43,43.95L240.72,124.89L241.3,86.08L241.59,120.48L241.87,120.48L242.16,88.88L242.74,71.73L243.03,75.62L243.32,78.22L243.61,82.49L243.9,60.78L244.76,96.73L245.05,69.67L245.92,97.29L246.2,75.6" style="vector-effect: non-scaling-stroke; fill: none; stroke: rgb(0, 0, 0); stroke-opacity: 1; stroke-width: 1px; opacity: 1;"/><g class="points"/></g></g></g><g class="overplot"/><path class="xlines-above crisp" d="M341.6870078740157,366.95669291338584H596.0629921259842" style="fill: none; stroke-width: 1px; stroke: rgb(0, 0, 0); stroke-opacity: 1;"/><path class="ylines-above crisp" d="M342.1870078740157,160.2529527559055V366.45669291338584" style="fill: none; stroke-width: 1px; stroke: rgb(0, 0, 0); stroke-opacity: 1;"/><g class="overlines-above"/><g class="xaxislayer-above"><path class="x3tick ticks crisp" d="M0,366.45669291338584v-5" transform="translate(349.5670078740157,0)" style="stroke: rgb(0, 0, 0); stroke-opacity: 1; stroke-width: 1px;"/><path class="x3tick ticks crisp" d="M0,366.45669291338584v-5" transform="translate(407.3070078740157,0)" style="stroke: rgb(0, 0, 0); stroke-opacity: 1; stroke-width: 1px;"/><path class="x3tick ticks crisp" d="M0,366.45669291338584v-5" transform="translate(465.0470078740157,0)" style="stroke: rgb(0, 0, 0); stroke-opacity: 1; stroke-width: 1px;"/><path class="x3tick ticks crisp" d="M0,366.45669291338584v-5" transform="translate(522.7870078740157,0)" style="stroke: rgb(0, 0, 0); stroke-opacity: 1; stroke-width: 1px;"/><path class="x3tick ticks crisp" d="M0,366.45669291338584v-5" transform="translate(580.5170078740157,0)" style="stroke: rgb(0, 0, 0); stroke-opacity: 1; stroke-width: 1px;"/><g class="x3tick"><text text-anchor="middle" x="0" y="380.6566929133858" transform="translate(349.5670078740157,0)" style="font-family: sans-serif; font-size: 11px; fill: rgb(0, 0, 0); fill-opacity: 1; white-space: pre;">0</text></g><g class="x3tick"><text text-anchor="middle" x="0" y="380.6566929133858" transform="translate(407.3070078740157,0)" style="font-family: sans-serif; font-size: 11px; fill: rgb(0, 0, 0); fill-opacity: 1; white-space: pre;">200</text></g><g class="x3tick"><text text-anchor="middle" x="0" y="380.6566929133858" transform="translate(465.0470078740157,0)" style="font-family: sans-serif; font-size: 11px; fill: rgb(0, 0, 0); fill-opacity: 1; white-space: pre;">400</text></g><g class="x3tick"><text text-anchor="middle" x="0" y="380.6566929133858" transform="translate(522.7870078740157,0)" style="font-family: sans-serif; font-size: 11px; fill: rgb(0, 0, 0); fill-opacity: 1; white-space: pre;">600</text></g><g class="x3tick"><text text-anchor="middle" x="0" y="380.6566929133858" transform="translate(580.5170078740157,0)" style="font-family: sans-serif; font-size: 11px; fill: rgb(0, 0, 0); fill-opacity: 1; white-space: pre;">800</text></g></g><g class="yaxislayer-above"><path class="y3tick ticks crisp" d="M342.6870078740157,0h5" transform="translate(0,342.1829527559055)" style="stroke: rgb(0, 0, 0); stroke-opacity: 1; stroke-width: 1px;"/><path class="y3tick ticks crisp" d="M342.6870078740157,0h5" transform="translate(0,296.1029527559055)" style="stroke: rgb(0, 0, 0); stroke-opacity: 1; stroke-width: 1px;"/><path class="y3tick ticks crisp" d="M342.6870078740157,0h5" transform="translate(0,250.01295275590553)" style="stroke: rgb(0, 0, 0); stroke-opacity: 1; stroke-width: 1px;"/><path class="y3tick ticks crisp" d="M342.6870078740157,0h5" transform="translate(0,203.93295275590552)" style="stroke: rgb(0, 0, 0); stroke-opacity: 1; stroke-width: 1px;"/><g class="y3tick"><text text-anchor="end" x="339.4870078740157" y="3.8499999999999996" transform="translate(0,342.1829527559055)" style="font-family: sans-serif; font-size: 11px; fill: rgb(0, 0, 0); fill-opacity: 1; white-space: pre;">0.0</text></g><g class="y3tick"><text text-anchor="end" x="339.4870078740157" y="3.8499999999999996" transform="translate(0,296.1029527559055)" style="font-family: sans-serif; font-size: 11px; fill: rgb(0, 0, 0); fill-opacity: 1; white-space: pre;">0.5</text></g><g class="y3tick"><text text-anchor="end" x="339.4870078740157" y="3.8499999999999996" transform="translate(0,250.01295275590553)" style="font-family: sans-serif; font-size: 11px; fill: rgb(0, 0, 0); fill-opacity: 1; white-space: pre;">1.0</text></g><g class="y3tick"><text text-anchor="end" x="339.4870078740157" y="3.8499999999999996" transform="translate(0,203.93295275590552)" style="font-family: sans-serif; font-size: 11px; fill: rgb(0, 0, 0); fill-opacity: 1; white-space: pre;">1.5</text></g></g><g class="overaxes-above"/></g></g><g class="polarlayer"/><g class="ternarylayer"/><g class="geolayer"/><g class="pielayer"/><g class="glimages"/><defs id="topdefs-03fcef"><g class="clips"/></defs><g class="layer-above"><g class="imagelayer"/><g class="shapelayer"/></g><g class="infolayer"><g class="g-gtitle"/><g class="g-xtitle"><text class="xtitle" x="325.4166666666667" y="166.91633858267716" text-anchor="middle" style="font-family: sans-serif; font-size: 15px; fill: rgb(0, 0, 0); opacity: 1; font-weight: normal; white-space: pre;">iteration</text></g><g class="g-x2title"/><g class="g-x3title"/><g class="g-ytitle"><text class="ytitle" transform="rotate(-90,14.77034120734907,67.72982283464567)" x="14.77034120734907" y="67.72982283464567" text-anchor="middle" style="font-family: sans-serif; font-size: 15px; fill: rgb(0, 0, 0); opacity: 1; font-weight: normal; white-space: pre;">Obj Value</text></g><g class="g-y2title"/><g class="g-y3title"/><g class="annotation" data-index="0" style="opacity: 1;"><g class="annotation-text-g" transform="rotate(0,181.45833333333331,152.20964566929132)"><g class="cursor-pointer" transform="translate(168, 139)"><rect class="bg" x="0.5" y="0.5" width="25" height="25" style="stroke-width: 1px; stroke: rgb(0, 0, 0); stroke-opacity: 0; fill: rgb(0, 0, 0); fill-opacity: 0;"/><text class="annotation-text" text-anchor="middle" x="13.109375" y="20" style="font-family: sans-serif; font-size: 20px; fill: rgb(0, 0, 0); fill-opacity: 1; white-space: pre;">p1</text></g></g></g><g class="annotation" data-index="1" style="opacity: 1;"><g class="annotation-text-g" transform="rotate(0,469.3749999999999,152.20964566929132)"><g class="cursor-pointer" transform="translate(456, 139)"><rect class="bg" x="0.5" y="0.5" width="26" height="25" style="stroke-width: 1px; stroke: rgb(0, 0, 0); stroke-opacity: 0; fill: rgb(0, 0, 0); fill-opacity: 0;"/><text class="annotation-text" text-anchor="middle" x="13.109375" y="20" style="font-family: sans-serif; font-size: 20px; fill: rgb(0, 0, 0); fill-opacity: 1; white-space: pre;">p2</text></g></g></g></g></svg>